<svg width="31" height="31" viewBox="0 0 31 31" fill="none" xmlns="http://www.w3.org/2000/svg">
<path d="M9.6875 29.0625C10.7576 29.0625 11.625 28.1951 11.625 27.125C11.625 26.0549 10.7576 25.1875 9.6875 25.1875C8.61745 25.1875 7.75 26.0549 7.75 27.125C7.75 28.1951 8.61745 29.0625 9.6875 29.0625Z" fill="black"/>
<path d="M23.25 29.0625C24.3201 29.0625 25.1875 28.1951 25.1875 27.125C25.1875 26.0549 24.3201 25.1875 23.25 25.1875C22.1799 25.1875 21.3125 26.0549 21.3125 27.125C21.3125 28.1951 22.1799 29.0625 23.25 29.0625Z" fill="black"/>
<path d="M27.125 6.78125H5.63812L4.84375 2.7125C4.79846 2.49039 4.67671 2.29119 4.49971 2.14959C4.3227 2.00798 4.10163 1.93293 3.875 1.9375H0V3.875H3.08062L6.78125 22.475C6.82654 22.6971 6.94829 22.8963 7.12529 23.0379C7.3023 23.1795 7.52336 23.2546 7.75 23.25H25.1875V21.3125H8.54437L7.75 17.4375H25.1875C25.4114 17.443 25.6304 17.3707 25.807 17.2329C25.9836 17.0951 26.107 16.9004 26.1562 16.6819L28.0937 7.96312C28.1262 7.81939 28.1255 7.67014 28.0915 7.52673C28.0576 7.38333 27.9914 7.24956 27.898 7.13559C27.8046 7.02162 27.6864 6.93047 27.5525 6.86907C27.4185 6.80766 27.2723 6.77763 27.125 6.78125ZM24.4125 15.5H7.38187L6.02562 8.71875H25.9141L24.4125 15.5Z" fill="black"/>
</svg>
