<svg width="31" height="31" viewBox="0 0 31 31" fill="none" xmlns="http://www.w3.org/2000/svg">
<path d="M12.7281 25.4572C5.6787 25.4572 0 19.7783 0 12.7286C0 5.67891 5.6787 0 12.7281 0C19.7775 0 25.4562 5.67891 25.4562 12.7286C25.4562 19.7783 19.7775 25.4572 12.7281 25.4572ZM12.7281 1.95824C6.75569 1.95824 1.95817 6.75594 1.95817 12.7286C1.95817 18.7012 6.75569 23.4989 12.7281 23.4989C18.7005 23.4989 23.4981 18.7012 23.4981 12.7286C23.4981 6.75594 18.7005 1.95824 12.7281 1.95824Z" fill="black"/>
<path d="M22.2079 20.823L31.0001 29.6155L29.6157 31L20.8235 22.2075L22.2079 20.823Z" fill="black"/>
</svg>
