<svg width="19" height="19" viewBox="0 0 19 19" fill="none" xmlns="http://www.w3.org/2000/svg">
<path d="M9.34666 0C6.8058 0 6.48914 0.012269 5.49477 0.0543342C4.4963 0.10341 3.82092 0.258234 3.225 0.489592C2.6013 0.725053 2.03646 1.0937 1.56985 1.56985C1.09238 2.03537 0.72352 2.60053 0.489592 3.225C0.258234 3.82092 0.10341 4.4963 0.0543342 5.49477C0.00934783 6.48973 0 6.8058 0 9.34666C0 11.8875 0.012269 12.2042 0.0543342 13.1985C0.10341 14.1941 0.258234 14.8724 0.489592 15.4683C0.725053 16.092 1.0937 16.6569 1.56985 17.1235C2.03537 17.6009 2.60053 17.9698 3.225 18.2037C3.82092 18.4322 4.49923 18.5899 5.49477 18.639C6.48973 18.684 6.8058 18.6933 9.34666 18.6933C11.8875 18.6933 12.2042 18.681 13.1985 18.639C14.1941 18.5899 14.8724 18.4316 15.4683 18.2037C16.092 17.9683 16.6569 17.5996 17.1235 17.1235C17.6016 16.6584 17.9705 16.0931 18.2037 15.4683C18.4322 14.8724 18.5899 14.1941 18.639 13.1985C18.684 12.2036 18.6933 11.8875 18.6933 9.34666C18.6933 6.8058 18.681 6.48914 18.639 5.49477C18.5899 4.49922 18.4316 3.81742 18.2037 3.225C17.9683 2.6013 17.5996 2.03646 17.1235 1.56985C16.6585 1.09176 16.0932 0.722809 15.4683 0.489592C14.8724 0.258234 14.1941 0.10341 13.1985 0.0543342C12.2036 0.00934783 11.8875 0 9.34666 0ZM9.34666 1.68261C11.8419 1.68261 12.1399 1.69488 13.1261 1.73694C14.0358 1.77959 14.5312 1.93149 14.8601 2.06003C15.2668 2.21013 15.6348 2.44904 15.9375 2.75936C16.2473 3.06073 16.4853 3.42793 16.6339 3.83378C16.7624 4.1627 16.9143 4.65814 16.957 5.5678C16.999 6.55399 17.0113 6.85254 17.0113 9.34724C17.0113 11.8419 16.999 12.1405 16.9535 13.1267C16.9044 14.0363 16.7525 14.5318 16.6245 14.8607C16.4475 15.2995 16.25 15.6062 15.924 15.938C15.6204 16.2464 15.2525 16.4842 14.8467 16.6345C14.5218 16.763 14.0194 16.9149 13.1062 16.9575C12.1148 16.9996 11.8227 17.0119 9.32095 17.0119C6.81924 17.0119 6.5277 16.9996 5.53508 16.954C4.62542 16.905 4.12356 16.7531 3.79463 16.6251C3.35061 16.4481 3.04622 16.2506 2.72022 15.9246C2.39129 15.5957 2.18213 15.2825 2.02088 14.8473C1.89001 14.5224 1.74045 14.02 1.69196 13.1068C1.65866 12.1271 1.64288 11.8232 1.64288 9.33322C1.64288 6.84436 1.65866 6.53997 1.69196 5.54793C1.74045 4.63477 1.89001 4.13349 2.02088 3.80749C2.18213 3.36288 2.39188 3.05908 2.72022 2.73015C3.04564 2.40473 3.35061 2.1944 3.79463 2.02965C4.12356 1.9017 4.61315 1.7498 5.52632 1.70423C6.51777 1.66859 6.80989 1.65573 9.3081 1.65573L9.34666 1.68261ZM9.34666 4.54947C8.71646 4.54924 8.0924 4.67319 7.51013 4.91425C6.92787 5.15531 6.39881 5.50875 5.95319 5.95436C5.50758 6.39998 5.15414 6.92903 4.91309 7.5113C4.67203 8.09357 4.54807 8.71763 4.5483 9.34783C4.54807 9.97802 4.67203 10.6021 4.91309 11.1843C5.15414 11.7666 5.50758 12.2957 5.95319 12.7413C6.39881 13.1869 6.92787 13.5403 7.51013 13.7814C8.0924 14.0225 8.71646 14.1464 9.34666 14.1462C9.97685 14.1464 10.6009 14.0225 11.1832 13.7814C11.7654 13.5403 12.2945 13.1869 12.7401 12.7413C13.1857 12.2957 13.5392 11.7666 13.7802 11.1843C14.0213 10.6021 14.1452 9.97802 14.145 9.34783C14.1452 8.71763 14.0213 8.09357 13.7802 7.5113C13.5392 6.92903 13.1857 6.39998 12.7401 5.95436C12.2945 5.50875 11.7654 5.15531 11.1832 4.91425C10.6009 4.67319 9.97685 4.54924 9.34666 4.54947ZM9.34666 12.4636C7.62432 12.4636 6.23091 11.0702 6.23091 9.34783C6.23091 7.62549 7.62432 6.23208 9.34666 6.23208C11.069 6.23208 12.4624 7.62549 12.4624 9.34783C12.4624 11.0702 11.069 12.4636 9.34666 12.4636ZM15.4601 4.35784C15.4598 4.65561 15.3413 4.94107 15.1307 5.15151C14.92 5.36196 14.6344 5.48016 14.3366 5.48016C14.1894 5.48016 14.0436 5.45116 13.9076 5.39482C13.7716 5.33848 13.648 5.25589 13.5439 5.15178C13.4398 5.04768 13.3572 4.92408 13.3008 4.78805C13.2445 4.65203 13.2155 4.50624 13.2155 4.35901C13.2155 4.21178 13.2445 4.06599 13.3008 3.92996C13.3572 3.79394 13.4398 3.67034 13.5439 3.56623C13.648 3.46212 13.7716 3.37954 13.9076 3.3232C14.0436 3.26685 14.1894 3.23785 14.3366 3.23785C14.9542 3.23785 15.4601 3.7403 15.4601 4.35784Z" fill="black"/>
</svg>
