<svg width="29" height="29" viewBox="0 0 29 29" fill="none" xmlns="http://www.w3.org/2000/svg">
<path d="M14.5003 5.31288L13.2006 3.88801C10.1501 0.543359 4.55657 1.69756 2.53739 5.90254C1.58942 7.88034 1.37554 10.7359 3.10653 14.3802C4.77408 17.8892 8.24331 22.0922 14.5003 26.6703C20.7572 22.0922 24.2246 17.8892 25.894 14.3802C27.625 10.7339 27.4129 7.88034 26.4631 5.90254C24.4439 1.69756 18.8504 0.541426 15.7999 3.88608L14.5003 5.31288ZM14.5003 29C-13.2917 9.41153 5.94318 -5.87722 14.1812 2.20989C14.29 2.31622 14.3969 2.42642 14.5003 2.54049C14.6025 2.42652 14.7089 2.31688 14.8193 2.21182C23.0555 -5.88109 42.2922 9.4096 14.5003 29Z" fill="black"/>
</svg>
