<svg width="118" height="55" viewBox="0 0 118 55" fill="none" xmlns="http://www.w3.org/2000/svg">
<g clip-path="url(#clip0)">
<path d="M103.927 7.5653C103.992 4.58489 105.19 2.22948 107.968 0.960822C108.869 0.527124 109.853 0.29331 110.852 0.275256C111.852 0.257202 112.843 0.455331 113.76 0.856189C114.676 1.25705 115.496 1.85125 116.164 2.59844C116.831 3.34563 117.331 4.22832 117.628 5.18657C118.595 8.23228 117.656 11.7537 115.088 13.6054C114.062 14.3568 112.844 14.7971 111.577 14.8741C109.908 15.0602 108.229 14.6244 106.859 13.6493C105.489 12.6743 104.523 11.2279 104.145 9.58489C103.984 8.92427 103.911 8.24521 103.927 7.5653ZM105.859 7.65392C105.735 9.17559 106.115 10.6958 106.941 11.9776C107.493 12.9512 108.38 13.6891 109.435 14.0532C110.49 14.4172 111.641 14.3824 112.673 13.9552C113.26 13.7183 113.794 13.3643 114.242 12.9146C114.69 12.4649 115.042 11.9288 115.278 11.3386C115.769 10.3082 116.052 9.19001 116.109 8.04907C116.167 6.90813 115.998 5.76709 115.613 4.69217C114.939 2.66791 113.29 0.727613 110.504 0.960822C109.811 1.01537 109.141 1.23298 108.548 1.59602C107.955 1.95905 107.456 2.45729 107.09 3.05037C106.172 4.40026 105.737 6.02362 105.859 7.65392Z" fill="black"/>
<path d="M34.4024 7.88713C36.1952 9.7528 37.5978 11.8797 39.3024 13.7407C39.4629 13.951 39.6783 14.1124 39.9248 14.2071C40.1059 14.2631 40.287 14.3284 40.2406 14.5616C40.1941 14.7948 39.9805 14.8461 39.7761 14.8368C39.42 14.8492 39.0649 14.7895 38.7322 14.6613C38.3995 14.5331 38.0958 14.339 37.8393 14.0905C36.7943 13.0224 35.8886 11.8284 34.9318 10.681C34.2723 9.89273 33.6221 9.09049 32.9811 8.28359C32.8939 8.18206 32.7827 8.10411 32.6578 8.05685C32.5328 8.00959 32.3981 7.99454 32.2659 8.01306C30.3662 8.04105 30.6913 7.74721 30.6728 9.56157C30.6728 11.0728 30.6728 12.5886 30.6728 14.0998C30.6728 14.8041 30.6124 14.8554 29.9111 14.8554C29.2097 14.8554 29.1819 14.7901 29.1819 14.1138C29.1819 10.2146 29.1819 6.3153 29.1819 2.41605C29.1819 1.70709 29.154 1.04945 28.3551 0.750938C28.3017 0.737673 28.2556 0.703787 28.227 0.656633C28.1983 0.609479 28.1892 0.552863 28.2019 0.499073C28.239 0.377804 28.3458 0.349819 28.4527 0.340491C28.5595 0.331162 28.7731 0.340491 28.9171 0.340491C30.3105 0.307841 31.7039 0.340491 33.0972 0.2612C34.2922 0.138369 35.4935 0.424337 36.5063 1.07277C37.005 1.38654 37.4165 1.82173 37.7029 2.33794C37.9893 2.85415 38.1411 3.43465 38.1444 4.02554C38.1476 4.61644 38.0021 5.19858 37.7215 5.71793C37.4408 6.23728 37.034 6.677 36.5389 6.99627C35.8778 7.4043 35.1568 7.70496 34.4024 7.88713ZM30.6867 4.15579C30.6867 5.06064 30.6867 5.97015 30.6867 6.875C30.6867 7.26213 30.8353 7.42071 31.2208 7.41139C32.0058 7.41139 32.7907 7.45803 33.5431 7.41139C34.8157 7.30411 35.7957 6.74441 36.2695 5.45709C36.4738 4.80922 36.5231 4.1221 36.4135 3.4515C36.3695 2.81909 36.1077 2.22178 35.6729 1.76217C35.2381 1.30256 34.6575 1.00933 34.0308 0.932841C33.0694 0.85355 32.1126 0.904856 31.1558 0.876871C30.7703 0.876871 30.6913 1.0681 30.6913 1.40859C30.6821 2.33209 30.6774 3.22762 30.6774 4.13713L30.6867 4.15579Z" fill="black"/>
<path d="M0.989299 8.0737C0.989299 6.11474 0.989299 4.15579 0.989299 2.19683C0.989299 1.58583 0.87783 1.06344 0.232234 0.797579C0.102186 0.764929 -0.0557295 0.666982 5.34765e-06 0.499071C0.0557402 0.331161 0.297258 0.335825 0.464463 0.335825C2.08077 0.335825 3.71566 0.30784 5.31804 0.335825C6.67571 0.295199 8.01336 0.671811 9.15212 1.41529C10.2909 2.15878 11.1764 3.23369 11.6904 4.49627C13.0838 7.58396 12.257 11.819 9.2845 13.8759C8.41836 14.4859 7.39269 14.8265 6.3352 14.8554C4.76998 14.8974 3.20476 14.8554 1.63954 14.8554C1.17508 14.8554 0.98001 14.6782 0.984655 14.1978C0.998588 12.1688 0.989299 10.1213 0.989299 8.0737ZM4.55169 14.2351C4.97899 14.2351 5.40164 14.2351 5.82894 14.2351C6.6069 14.2361 7.37075 14.0265 8.04014 13.6284C8.70954 13.2304 9.25973 12.6585 9.63285 11.973C10.2014 11.0357 10.5766 9.99335 10.7362 8.90767C10.8958 7.822 10.8365 6.71519 10.5618 5.65299C10.0973 3.68471 9.05228 2.12221 7.12013 1.31997C5.76856 0.750937 4.31481 0.87687 2.87964 0.93284C2.55916 0.93284 2.4895 1.18471 2.4895 1.46456C2.4895 2.05224 2.4895 2.63993 2.4895 3.22762V13.5261C2.4895 14.2164 2.4895 14.2351 3.21869 14.2397L4.55169 14.2351Z" fill="black"/>
<path d="M79.3757 8.10168C79.3757 6.16139 79.3757 4.22109 79.3757 2.28079C79.3757 1.63713 79.2968 1.0681 78.5954 0.802243C78.484 0.760265 78.3632 0.680974 78.3911 0.527056C78.419 0.373139 78.5629 0.349818 78.6837 0.345153H79.6451C81.28 0.345153 82.8963 0.312504 84.5498 0.345153C85.3099 0.328482 86.0602 0.520321 86.7198 0.90002C87.3795 1.27972 87.9235 1.8329 88.2933 2.5C88.7453 3.28635 88.8878 4.21415 88.6927 5.10072C88.4976 5.98729 87.9789 6.76835 87.239 7.29012C86.1244 8.03655 84.8165 8.43869 83.4769 8.44683C82.8034 8.47948 82.1253 8.47015 81.4519 8.44683C81.0106 8.44683 80.8574 8.60541 80.862 9.04385C80.862 10.7323 80.862 12.4254 80.862 14.1138C80.8635 14.2654 80.8236 14.4145 80.7467 14.5449C80.6699 14.6753 80.5589 14.7821 80.4258 14.8537C80.2928 14.9253 80.1428 14.959 79.9921 14.9511C79.8414 14.9431 79.6957 14.8939 79.5708 14.8088C79.32 14.6642 79.3711 14.4123 79.3711 14.1884C79.3742 12.1611 79.3757 10.1322 79.3757 8.10168ZM80.8713 4.37034C80.8713 5.30318 80.8713 6.23601 80.8713 7.2015C80.8713 7.62127 80.992 7.82183 81.4472 7.80784C82.2275 7.78452 83.0124 7.80784 83.7927 7.80784C84.6179 7.78622 85.4116 7.48546 86.0453 6.9543C86.5813 6.45423 86.9541 5.80312 87.1149 5.08644C87.2757 4.36975 87.217 3.62099 86.9464 2.93844C86.389 1.63247 85.4601 0.93284 83.9646 0.965489C83.1332 0.993474 82.2925 0.965489 81.4611 0.965489C81.0246 0.965489 80.8527 1.11474 80.8666 1.55784C80.8852 2.5 80.8713 3.44217 80.8713 4.389V4.37034Z" fill="black"/>
<path d="M24.3468 14.8694C24.1657 14.8694 23.9892 14.8694 23.8127 14.8694C23.619 14.9008 23.4208 14.8549 23.2603 14.7417C23.0998 14.6284 22.9897 14.4567 22.9535 14.2631C22.489 12.9338 21.9874 11.6278 21.5276 10.2985C21.4834 10.1177 21.3738 9.95977 21.2202 9.85548C21.0665 9.7512 20.8798 9.70795 20.6962 9.73415C19.419 9.73415 18.1371 9.77146 16.8551 9.73415C16.6458 9.70486 16.4334 9.76008 16.2645 9.88771C16.0957 10.0153 15.984 10.205 15.9541 10.4151C15.5407 11.7164 15.0995 13.0131 14.6676 14.3144C14.6451 14.4006 14.6156 14.4849 14.5793 14.5662C14.565 14.613 14.5416 14.6565 14.5105 14.6941C14.4793 14.7317 14.441 14.7627 14.3977 14.7853C14.3545 14.8079 14.3072 14.8216 14.2586 14.8256C14.2101 14.8297 14.1612 14.8239 14.1149 14.8088C13.878 14.7295 13.943 14.5243 13.9941 14.3424C14.2449 13.5634 14.4957 12.7845 14.7558 12.0103C16.0129 8.27892 17.2732 4.55846 18.5365 0.848883C18.5829 0.713622 18.6387 0.578361 18.6898 0.447764C18.7408 0.317167 18.8059 -0.0186539 19.0753 -0.0186539C19.3446 -0.0186539 19.4561 0.214555 19.5397 0.447764C20.6885 3.55722 21.8326 6.66667 22.972 9.77612C23.4024 10.9422 23.8359 12.1082 24.2725 13.2743C24.3386 13.5054 24.4567 13.7182 24.6178 13.8961C24.7789 14.074 24.9786 14.2124 25.2014 14.3004C25.3733 14.361 25.5498 14.4543 25.4894 14.6782C25.429 14.9021 25.2479 14.8741 25.09 14.8787H24.3468V14.8694ZM18.7362 2.51866H18.5783L16.5254 8.77332C16.4046 9.1278 16.6601 9.10448 16.8737 9.10448C18.0999 9.10448 19.3261 9.10448 20.5522 9.10448C20.9795 9.10448 21.0631 8.96456 20.9145 8.55877C20.3525 7.02426 19.823 5.48041 19.275 3.94123C19.1031 3.46549 18.9173 2.99441 18.7362 2.51866Z" fill="black"/>
<path d="M56.6638 7.92911C56.6638 9.99689 56.6638 12.0631 56.6638 14.1278C56.6638 14.7854 56.5895 14.8554 55.9253 14.8601C55.1822 14.8601 55.0661 14.7715 55.0661 14.1091C55.0661 9.99534 55.0661 5.88153 55.0661 1.76773C55.0661 0.956158 55.0661 0.956158 54.2719 0.956158C53.6634 0.956158 53.0596 0.988808 52.4558 0.956158C52.0453 0.931285 51.6365 1.02642 51.2787 1.23006C50.921 1.4337 50.6297 1.7371 50.4401 2.10355C50.2822 2.34142 50.1661 2.60261 50.0174 2.84515C49.9915 2.90375 49.9481 2.95277 49.8931 2.98538C49.8382 3.01799 49.7745 3.03256 49.7109 3.02705C49.553 2.99907 49.5297 2.86381 49.5251 2.74254C49.5207 2.01232 49.6034 1.2842 49.7713 0.573696C49.8177 0.307838 50.0964 0.335823 50.3054 0.335823H61.1969C61.9865 0.335823 62.0933 0.43377 62.098 1.22202C62.1116 1.64975 62.1489 2.07639 62.2094 2.5C62.2094 2.68657 62.2837 2.93377 62.0469 3.01306C61.81 3.09235 61.731 2.85448 61.6289 2.69123C61.4591 2.37994 61.2731 2.0779 61.0715 1.78638C60.9006 1.53405 60.6706 1.32769 60.4017 1.18539C60.1329 1.04308 59.8334 0.969175 59.5295 0.970151C58.7817 0.970151 58.034 0.970151 57.2862 0.970151C56.8217 0.970151 56.6638 1.12873 56.6638 1.59049C56.6638 3.70336 56.6638 5.8209 56.6638 7.92911Z" fill="black"/>
<path d="M66.775 8.05504C66.775 6.11474 66.775 4.17444 66.775 2.22948C66.775 1.59981 66.6682 1.05877 66.004 0.797575C65.8926 0.750933 65.7625 0.68097 65.7904 0.527053C65.8182 0.373135 65.9855 0.340485 66.1294 0.331157C66.2734 0.321829 66.4128 0.331157 66.5567 0.331157H73.7094C73.8877 0.327283 74.0662 0.335073 74.2435 0.354478C74.3921 0.377799 74.5222 0.452426 74.5036 0.634329C74.4979 0.697448 74.4691 0.756203 74.4228 0.799265C74.3764 0.842327 74.3159 0.866647 74.2528 0.867538C74.0755 0.888488 73.8971 0.897836 73.7187 0.895523C72.1163 0.895523 70.5139 0.895523 68.9162 0.895523C68.4517 0.895523 68.2474 1.02146 68.2567 1.52985C68.2799 3.07836 68.2567 4.62687 68.2567 6.19403C68.2567 6.63246 68.4099 6.79105 68.8512 6.78638C70.0587 6.78638 71.271 6.78638 72.4832 6.78638C72.6594 6.78706 72.8351 6.80424 73.008 6.83769C73.0716 6.84674 73.1298 6.87869 73.1717 6.92761C73.2135 6.97652 73.2363 7.03905 73.2356 7.10355C73.2373 7.16708 73.2154 7.22897 73.1742 7.27723C73.133 7.32549 73.0755 7.35667 73.0127 7.36474C72.8385 7.4005 72.661 7.4177 72.4832 7.41605C71.2756 7.41605 70.0634 7.41605 68.8558 7.41605C68.4192 7.41605 68.252 7.56063 68.2567 8.00373C68.2752 9.89117 68.2752 11.7802 68.2567 13.6707C68.2567 14.1371 68.4471 14.2771 68.893 14.2724C70.5511 14.2724 72.2045 14.2724 73.858 14.2724C74.0127 14.2637 74.1678 14.2637 74.3225 14.2724C74.499 14.2957 74.6244 14.3843 74.6104 14.5849C74.6082 14.6576 74.5787 14.7268 74.5279 14.7786C74.4771 14.8305 74.4087 14.8613 74.3364 14.8647C74.1971 14.8647 74.0531 14.8881 73.9091 14.8881H67.5275C66.8261 14.8881 66.775 14.8368 66.775 14.1138V8.05504Z" fill="black"/>
<path d="M94.9676 7.29944V13.5261C94.9676 14.1931 94.9954 14.2164 95.6643 14.2211H100.574C100.751 14.2196 100.928 14.232 101.103 14.2584C101.166 14.2653 101.224 14.2954 101.266 14.3427C101.308 14.3901 101.331 14.4515 101.331 14.5149C101.336 14.5506 101.334 14.5869 101.325 14.6218C101.315 14.6566 101.299 14.6892 101.277 14.7175C101.255 14.7459 101.227 14.7694 101.196 14.7867C101.164 14.804 101.129 14.8147 101.094 14.8181C100.954 14.8407 100.813 14.8517 100.671 14.8507H94.2151C93.5231 14.8507 93.4767 14.7994 93.4767 14.0718C93.4767 10.1726 93.4767 6.27487 93.4767 2.37873C93.4767 1.68377 93.4349 1.04944 92.6592 0.760258C92.6063 0.74797 92.5598 0.716307 92.5289 0.671457C92.498 0.626607 92.4848 0.571792 92.492 0.517721C92.5199 0.359139 92.6546 0.331154 92.78 0.331154C93.3838 0.331154 93.9876 0.331154 94.5914 0.331154C94.9676 0.331154 94.9629 0.648318 94.9676 0.923505V7.29944Z" fill="black"/>
<path d="M43.3803 7.54198V1.13806C43.3803 0.401117 43.4407 0.340482 44.1234 0.331154C44.8898 0.331154 45.0013 0.415109 45.0013 1.11474V14.0812C45.0013 14.3423 45.057 14.6642 44.7551 14.7854C44.5745 14.8627 44.3802 14.9025 44.1838 14.9025C43.9875 14.9025 43.7932 14.8627 43.6125 14.7854C43.3339 14.6595 43.4082 14.3563 43.4035 14.1138L43.3803 7.54198Z" fill="black"/>
<path d="M78.4933 23.8899C78.405 23.9786 78.3168 23.9179 78.2611 23.8573C77.7941 23.6553 77.2961 23.5354 76.7887 23.5028C76.1153 23.4189 75.4372 23.3582 74.7637 23.3302C72.7062 23.209 70.6486 23.181 68.6189 23.209H65.1819L61.3084 23.3209C59.7524 23.3536 58.164 23.4095 56.6034 23.4702C56.1668 23.4702 55.6745 23.4981 55.2519 23.4981C55.146 23.4979 55.0418 23.5247 54.9492 23.5761C54.8565 23.6275 54.7785 23.7018 54.7224 23.792C54.4623 24.2584 54.2254 24.7248 53.9607 25.2425V25.2985C53.9328 25.3592 53.9003 25.3871 53.8724 25.4478H53.9003C53.8724 25.5037 53.8445 25.5364 53.812 25.5924C53.7795 25.6483 53.7563 25.681 53.7238 25.7416C53.688 25.783 53.6682 25.836 53.6681 25.8909C53.6077 25.9189 53.6077 25.9795 53.5798 26.0355C53.5415 26.0757 53.52 26.1291 53.5194 26.1847L53.4312 26.334C53.3947 26.3735 53.3733 26.4247 53.3708 26.4786C53.3151 26.5112 53.3151 26.5672 53.2826 26.6278C53.2812 26.6824 53.2616 26.735 53.2268 26.7771C53.1851 26.8165 53.1546 26.8664 53.1386 26.9217C53.1003 26.9619 53.0787 27.0153 53.0782 27.0709L52.9899 27.2155C52.9902 27.2431 52.9849 27.2706 52.9746 27.2962C52.9642 27.3218 52.9489 27.3451 52.9296 27.3647C52.9083 27.4189 52.8785 27.4693 52.8413 27.514C52.7058 27.6884 52.6063 27.8882 52.5487 28.1017C52.5486 28.1565 52.5288 28.2095 52.493 28.2509C52.3237 28.505 52.1937 28.7833 52.1075 29.0765C52.0717 29.1179 52.0519 29.1709 52.0517 29.2258C51.9914 29.2537 51.9914 29.3144 51.9635 29.3703C51.9356 29.4263 51.931 29.459 51.9031 29.5196C51.7875 29.6817 51.6982 29.8612 51.6384 30.0513C51.6042 30.0915 51.5831 30.1412 51.5781 30.1938C51.5732 30.2464 51.5845 30.2993 51.6105 30.3452C51.5734 30.3899 51.5436 30.4403 51.5223 30.4944L51.5501 30.4664C51.4897 30.555 51.4015 30.583 51.3736 30.6996C51.3458 30.8162 51.3458 30.7883 51.3133 30.8489C51.1882 31.0011 51.1078 31.1852 51.081 31.3806V31.348C51.081 31.4086 51.0485 31.4366 51.0206 31.4972C50.9307 31.6045 50.8799 31.7394 50.8767 31.8797C50.8163 31.9123 50.8163 31.9683 50.7884 32.0289C50.7605 32.0896 50.6398 32.2342 50.6677 32.3834C50.5648 32.4853 50.5021 32.6212 50.4912 32.7659L50.4354 32.9151C50.2476 33.2131 50.1168 33.5437 50.0499 33.8899C50.0221 33.9179 50.0221 33.9739 49.9942 34.0065C49.9663 34.0392 50.0499 34.0065 50.0499 34.0345H49.9942L49.9059 34.2118C49.8935 34.2267 49.8842 34.2441 49.8789 34.2628C49.8735 34.2816 49.872 34.3012 49.8747 34.3206C49.8773 34.3399 49.8839 34.3584 49.8941 34.3751C49.9043 34.3917 49.9178 34.4059 49.9338 34.417L49.7573 34.5942C49.6876 34.7118 49.6477 34.8447 49.6412 34.9814C49.612 35.0067 49.5889 35.0383 49.5737 35.0738C49.5584 35.1093 49.5513 35.1479 49.553 35.1866C49.4619 35.2936 49.4096 35.4284 49.4043 35.569C49.3765 35.6297 49.344 35.6577 49.344 35.7183C49.2557 35.7789 49.2557 35.8629 49.2557 35.9562C49.2207 36.0007 49.1911 36.0492 49.1675 36.1008C49.1366 36.1652 49.1177 36.2347 49.1117 36.306C49.0285 36.4223 48.9685 36.5538 48.9352 36.6931C48.9145 36.7716 48.9244 36.855 48.9631 36.9263C48.8998 36.9843 48.8505 37.0561 48.8191 37.1362C48.8029 37.1568 48.7941 37.1823 48.7941 37.2085C48.7941 37.2347 48.8029 37.2602 48.8191 37.2808L48.7309 37.4907C48.6984 37.458 48.6984 37.458 48.6705 37.4907C48.5861 37.6251 48.5264 37.7736 48.494 37.9291L48.4336 38.167C48.4661 38.2276 48.4661 38.2556 48.4336 38.2836V38.3162C48.4336 38.4328 48.2571 38.4608 48.2896 38.6101C48.2571 38.6381 48.2571 38.6987 48.2293 38.7593C48.1922 38.8215 48.1714 38.8921 48.1689 38.9646C48.1393 38.9971 48.1199 39.0376 48.1131 39.0812C48.1174 39.1568 48.1064 39.2326 48.0809 39.3039C48.0554 39.3752 48.0158 39.4407 47.9645 39.4963C47.9219 39.5442 47.8896 39.6003 47.8696 39.6613C47.8496 39.7223 47.8424 39.7868 47.8484 39.8508C47.6431 40.2532 47.4872 40.6792 47.3839 41.1194C47.2819 41.2528 47.2293 41.4177 47.2353 41.5858C47.1986 41.7083 47.1504 41.827 47.0913 41.9403C47.038 42.0536 46.9975 42.1725 46.9706 42.2948L46.8823 42.6166C46.7907 42.7687 46.741 42.9426 46.7383 43.1203V43.209C46.7058 43.3256 46.5897 43.3862 46.5897 43.5028C46.5133 43.6483 46.4629 43.8062 46.4411 43.9692C46.3056 44.2814 46.2074 44.6086 46.1485 44.944C46.0548 45.0412 45.9931 45.1649 45.972 45.2985L45.7073 46.2733C45.6794 46.3293 45.6469 46.4179 45.619 46.4786C45.5879 46.5527 45.569 46.6315 45.5633 46.7118L45.475 46.9216C45.3543 47.3041 45.2382 47.7192 45.122 48.1017C45.0281 48.2652 44.9681 48.446 44.9455 48.6334H44.9734L44.8852 48.8666V48.8386C44.8087 48.9841 44.7584 49.142 44.7365 49.305C44.6481 49.4687 44.5988 49.6507 44.5926 49.8368C44.5583 49.9001 44.5377 49.9701 44.5322 50.042C44.4763 50.1299 44.4458 50.2316 44.4439 50.3358C44.4109 50.4112 44.3905 50.4916 44.3836 50.5737L44.2953 50.8116V50.7789C44.2396 51.0448 44.1513 51.2827 44.0909 51.5485V51.5205C44.0012 51.6839 43.9503 51.8659 43.9423 52.0522C43.85 52.2126 43.8004 52.3941 43.7983 52.5793C43.7211 52.6623 43.6695 52.766 43.6497 52.8778L43.5057 53.4655C43.4449 53.6457 43.415 53.8349 43.4175 54.0252C43.4066 54.2473 43.366 54.467 43.2967 54.6782C43.2761 54.8182 43.203 54.945 43.0924 55.0327C43.0832 55.04 43.0723 55.0451 43.0608 55.0475C43.0493 55.0498 43.0373 55.0494 43.026 55.0462C43.0146 55.043 43.0042 55.0371 42.9956 55.0291C42.9869 55.0211 42.9803 55.0111 42.9762 55C42.9437 54.944 42.9159 54.944 42.888 55C42.7394 55.1213 42.7394 55.1213 42.6233 55.0327C42.5485 54.9398 42.443 54.8769 42.326 54.8554C42.1495 54.8554 42.0938 54.7342 42.1495 54.5289C42.2981 53.9086 42.4468 53.2603 42.614 52.6633C42.8462 51.8657 43.0784 51.0401 43.2874 50.2425C43.5847 49.2677 43.8169 48.2649 44.1699 47.3228C44.2581 46.9963 44.3185 46.7024 44.4346 46.3899C44.5833 45.8909 44.7598 45.3871 44.8991 44.8554C45.0384 44.3237 45.1638 43.9226 45.3125 43.4562C45.4611 42.9897 45.6655 42.4254 45.8094 41.9216L46.4875 39.8274C46.664 39.2677 46.8684 38.736 47.0449 38.1763C47.37 37.2901 47.723 36.4039 48.0156 35.5504C48.22 34.986 48.4801 34.4543 48.6612 33.9272C48.8423 33.4002 49.0467 32.9944 49.2511 32.4814L50.0453 30.709C50.3379 29.9394 50.7513 29.2024 51.0996 28.4375C51.5641 27.3414 52.1307 26.2827 52.688 25.2192L53.2779 24.0952C53.4544 23.7733 53.394 23.7127 53.0689 23.7407C52.4233 23.7407 51.7777 23.8013 51.16 23.8293L48.1642 24.0065C47.6998 24.0392 47.2818 24.0952 46.8684 24.1278L45.8698 24.2164C44.9409 24.305 44.0491 24.361 43.1667 24.4496C42.196 24.5709 41.2252 24.6595 40.287 24.7761L38.3177 25.042C37.7604 25.1026 37.1984 25.1912 36.641 25.2472C36.0837 25.3032 35.5821 25.3965 35.0526 25.4851C34.5231 25.5737 33.8775 25.6297 33.2923 25.7183C32.5863 25.8069 31.8989 25.8955 31.2348 26.0168C30.5706 26.1381 29.9111 26.1334 29.2655 26.194C28.9545 26.2177 28.6418 26.1973 28.3366 26.1334C28.2229 26.1348 28.111 26.1052 28.0128 26.0477C27.9147 25.9902 27.8339 25.9069 27.7792 25.8069V25.6903C27.8117 25.6903 27.8675 25.6623 27.8953 25.6623C28.1427 25.742 28.4054 25.7612 28.6617 25.7183C29.1951 25.6703 29.7254 25.5924 30.2501 25.4851C31.2487 25.3358 32.2473 25.1586 33.218 24.9814C33.8032 24.8927 34.3652 24.7761 34.9226 24.6875C36.2463 24.4496 37.5978 24.2211 38.9169 24.0392C39.595 23.9506 40.2406 23.8619 40.9187 23.7407C41.476 23.6521 42.0613 23.5961 42.6233 23.5355L44.2674 23.3582C44.7319 23.3022 45.122 23.2696 45.5633 23.2416L47.5604 23.0644C48.1178 23.0037 48.6473 22.9758 49.1767 22.9478C49.971 22.8871 50.7652 22.8592 51.5269 22.7985H52.1168L53.8213 22.7099C53.8861 22.7148 53.9509 22.7007 54.0078 22.6692C54.0648 22.6377 54.1113 22.5903 54.1418 22.5327C54.2485 22.4071 54.3376 22.2674 54.4065 22.1175C54.583 21.7631 54.8199 21.4412 55.0243 21.0868C55.289 20.6203 55.5816 20.1539 55.8789 19.6875C56.1761 19.2211 56.4641 18.7127 56.8078 18.2416C57.1004 17.8545 57.3373 17.444 57.602 17.0569C58.0107 16.4692 58.4241 15.9095 58.8653 15.3172C59.3066 14.7248 59.7942 14.1091 60.3051 13.5168C60.5699 13.1903 60.8625 12.8685 61.1551 12.542C61.1914 12.5073 61.232 12.4776 61.2759 12.4534C61.3316 12.3974 61.392 12.3368 61.4802 12.3974C61.5352 12.4151 61.5827 12.4511 61.6147 12.4994C61.6468 12.5476 61.6616 12.6054 61.6567 12.6633C61.6515 12.7441 61.631 12.8233 61.5963 12.8965C61.5086 13.0504 61.4108 13.1985 61.3037 13.3396C60.8393 14.0485 60.333 14.7388 59.836 15.4664C59.3391 16.194 58.9071 16.8237 58.4798 17.5327C58.4241 17.6213 58.3637 17.7659 58.3033 17.8871V17.9431C58.1835 18.0517 58.0843 18.1813 58.0107 18.3256C57.9072 18.4242 57.8278 18.5455 57.7785 18.68C57.6517 18.8159 57.551 18.974 57.4812 19.1465C57.3009 19.3749 57.1452 19.6219 57.0168 19.8834C56.8728 20.0933 56.752 20.2985 56.6359 20.5037C56.5207 20.6559 56.4313 20.8261 56.3712 21.0075C56.3347 21.0526 56.305 21.1029 56.2829 21.1567C56.2243 21.1963 56.1754 21.2488 56.1399 21.3102C56.1045 21.3717 56.0835 21.4404 56.0786 21.5112C55.9311 21.6538 55.8292 21.8373 55.786 22.0383L55.6977 22.1875C55.6374 22.2155 55.6374 22.2761 55.6374 22.3368C55.6151 22.3649 55.584 22.3847 55.5491 22.3927V22.4254C55.5212 22.4534 55.5212 22.514 55.4887 22.542C55.4562 22.57 55.5212 22.57 55.5491 22.57C55.5891 22.6042 55.6358 22.6298 55.6862 22.645C55.7365 22.6603 55.7895 22.6649 55.8417 22.6586C56.4594 22.6306 57.0772 22.6306 57.6995 22.6306C58.4613 22.6026 59.1997 22.57 59.9615 22.57C61.9308 22.514 63.8722 22.514 65.809 22.4814C68.043 22.4814 70.2492 22.4814 72.4832 22.514C73.4539 22.542 74.42 22.6026 75.4232 22.6586C76.0587 22.711 76.6882 22.8202 77.3043 22.9851C77.7104 23.1109 78.0685 23.3582 78.3307 23.694C78.3586 23.75 78.3911 23.7827 78.3911 23.8386C78.4297 23.8445 78.4654 23.8625 78.4933 23.8899ZM43.0784 52.3414C43.0506 52.3974 43.0506 52.458 43.0227 52.5187C43.0373 52.5345 43.0571 52.5444 43.0784 52.5467V52.3414ZM43.1945 52.2388C43.1699 52.1717 43.1588 52.1004 43.162 52.0289C43.1222 52.1137 43.0926 52.203 43.0738 52.2948C43.1574 52.3414 43.1945 52.3088 43.1945 52.2388ZM43.3107 51.5019C43.2853 51.5345 43.2668 51.5721 43.2564 51.6122C43.246 51.6523 43.2439 51.6941 43.2503 51.7351C43.1964 51.8135 43.1658 51.9057 43.162 52.0009H43.2503V51.7724C43.2869 51.6919 43.3059 51.6044 43.306 51.5159L43.3107 51.5019ZM43.3989 51.236C43.3693 51.2669 43.3462 51.3035 43.331 51.3435C43.3158 51.3836 43.3089 51.4264 43.3107 51.4692C43.3664 51.4272 43.3664 51.3386 43.3943 51.25L43.3989 51.236ZM53.9189 24.9067C53.8631 24.9394 53.8306 24.9674 53.8306 25.028C53.809 25.0516 53.7927 25.0798 53.7831 25.1104C53.7735 25.141 53.7707 25.1734 53.7749 25.2052C53.7145 25.2332 53.6866 25.2612 53.6866 25.3218C53.5905 25.4092 53.5185 25.5201 53.4776 25.6437C52.832 26.917 52.1864 28.1856 51.6198 29.4823C50.9742 30.8815 50.389 32.2808 49.7991 33.7314C49.1535 35.3871 48.5079 37.0662 47.9413 38.778C47.3747 40.4897 46.7383 42.2901 46.1764 44.0625C45.2985 46.7491 44.4439 49.4636 43.6822 52.2062C43.5868 52.4874 43.5077 52.7739 43.4453 53.0644C43.4175 53.153 43.4175 53.153 43.4453 53.3302C43.5307 53.1729 43.5903 53.0028 43.6218 52.8265C44.0306 51.264 44.5043 49.7295 44.9734 48.195C45.3868 46.8937 45.8234 45.597 46.2367 44.3004C46.7662 42.6166 47.3236 40.9655 47.9134 39.3097C48.5033 37.6539 49.0281 36.0914 49.6737 34.5009C50.2032 33.1017 50.7652 31.7537 51.3783 30.3965C51.7034 29.6315 52.0564 28.9226 52.4094 28.1856C52.7624 27.4487 53.1153 26.6511 53.4962 25.9095C53.6033 25.7363 53.6832 25.5475 53.7331 25.3498C53.7596 25.3362 53.7818 25.3154 53.7974 25.2899C53.8129 25.2644 53.8212 25.2351 53.8213 25.2052C53.8771 25.1726 53.8771 25.1119 53.8771 25.056C53.8932 25.0378 53.9049 25.0162 53.9113 24.9927C53.9178 24.9692 53.9188 24.9446 53.9142 24.9207L53.9189 24.9067ZM43.3943 51.2174C43.4313 51.1451 43.4519 51.0654 43.4546 50.9841H43.5429C43.5429 50.8955 43.5104 50.8069 43.5104 50.6856H43.5986C43.6029 50.6005 43.6338 50.5189 43.6869 50.4524C43.6869 50.3638 43.659 50.2752 43.659 50.1866C43.5923 50.3473 43.5425 50.5145 43.5104 50.6856C43.4825 50.8069 43.4825 50.8955 43.4546 50.9841C43.4069 51.0519 43.3854 51.1348 43.3943 51.2174ZM43.6869 50.1586C43.7194 50.098 43.7751 50.0373 43.8355 49.9487C43.8959 49.8601 43.8355 49.8321 43.8912 49.8041C43.947 49.7761 43.9516 49.7155 43.9795 49.6828H43.9516C44.0399 49.5383 44.1281 49.389 44.0399 49.2164V48.9226C43.988 49.0112 43.9668 49.1145 43.9795 49.2164C43.8185 49.507 43.7189 49.8277 43.6869 50.1586ZM44.0399 48.9179H44.1235V48.9739C44.1838 48.9739 44.1838 48.9459 44.1838 48.9179C44.1838 48.8899 44.2721 48.7687 44.1838 48.708L44.2721 48.4748C44.2721 48.4142 44.2721 48.3536 44.3278 48.3256C44.3836 48.2976 44.3882 48.2369 44.4161 48.181C44.432 48.1483 44.4404 48.1124 44.4404 48.076C44.4404 48.0396 44.432 48.0037 44.4161 47.9711C44.4188 47.8898 44.4394 47.8102 44.4764 47.7379C44.5043 47.6493 44.5043 47.5886 44.5647 47.528V47.2341C44.59 47.2005 44.6084 47.1622 44.6187 47.1213C44.6291 47.0805 44.6313 47.038 44.6251 46.9963H44.7133C44.7159 46.9245 44.735 46.8542 44.7691 46.7911V46.7631C44.7731 46.6863 44.8044 46.6135 44.8573 46.5578C44.8573 46.4972 44.8573 46.4366 44.9177 46.4086C44.9781 46.3806 44.9781 46.32 44.9781 46.2593L45.0663 46.0541C45.0931 46.0203 45.1076 45.9784 45.1076 45.9352C45.1076 45.892 45.0931 45.8501 45.0663 45.8162C45.0813 45.7337 45.1112 45.6547 45.1546 45.583C45.16 45.5102 45.1789 45.439 45.2103 45.3731C45.2428 45.3172 45.2428 45.2565 45.2985 45.2286C45.3543 45.2006 45.3589 45.1399 45.3589 45.0793C45.3589 45.0187 45.4193 44.9627 45.4472 44.8741C45.4752 44.7973 45.4752 44.713 45.4472 44.6362C45.4472 44.5802 45.475 44.5476 45.5354 44.4916C45.5611 44.4772 45.5829 44.4568 45.5989 44.4321C45.615 44.4074 45.6248 44.3791 45.6275 44.3497C45.6303 44.3203 45.6259 44.2907 45.6147 44.2634C45.6035 44.2362 45.5858 44.212 45.5633 44.1931H45.5958C45.601 44.1128 45.6199 44.0339 45.6515 43.9599C45.6794 43.9272 45.6794 43.8713 45.7398 43.8386C45.8001 43.806 45.8001 43.722 45.8001 43.694C45.7748 43.6604 45.7565 43.622 45.7461 43.5812C45.7357 43.5404 45.7336 43.4979 45.7398 43.4562H45.8001V43.6614L45.8884 43.4562C45.9192 43.3917 45.9381 43.3222 45.9441 43.2509C45.8995 43.1802 45.8799 43.0964 45.8884 43.0131H45.9441V43.2183C46.0045 43.1623 46.0045 43.1017 45.9441 43.0131C45.944 42.9746 45.9518 42.9365 45.967 42.9012C45.9821 42.8659 46.0044 42.8341 46.0324 42.8078C46.0649 42.8358 46.0649 42.8078 46.0928 42.8078H46.0324C46.0393 42.7257 46.0597 42.6454 46.0928 42.57V42.7799C46.1531 42.7192 46.1531 42.6586 46.181 42.57C46.2144 42.5062 46.2349 42.4365 46.2414 42.3647H46.181C46.1748 42.3231 46.177 42.2805 46.1873 42.2397C46.1977 42.1989 46.2161 42.1605 46.2414 42.1269V42.3368C46.2971 42.2761 46.2971 42.2155 46.3296 42.1269C46.3615 42.0628 46.3805 41.9931 46.3854 41.9216H46.3296C46.3349 41.8398 46.3537 41.7594 46.3854 41.6838V41.8937C46.4457 41.833 46.4457 41.7724 46.4736 41.6838C46.5015 41.5952 46.534 41.5392 46.4736 41.4786V41.6838H46.3854C46.4042 41.6024 46.4339 41.524 46.4736 41.4506C46.4814 41.4064 46.5025 41.3657 46.534 41.334C46.5847 41.3038 46.6257 41.2596 46.6521 41.2067C46.6784 41.1537 46.689 41.0943 46.6826 41.0355C46.7989 40.8254 46.8775 40.5965 46.9148 40.3591C46.9401 40.3255 46.9585 40.2872 46.9689 40.2463C46.9792 40.2055 46.9814 40.163 46.9752 40.1213C47.0041 40.0958 47.0271 40.0641 47.0423 40.0286C47.0576 39.9931 47.0648 39.9547 47.0635 39.9161C47.0965 39.8407 47.1169 39.7603 47.1238 39.6782C47.1518 39.6519 47.1741 39.6201 47.1893 39.5848C47.2044 39.5495 47.2122 39.5114 47.2121 39.473C47.2598 39.4035 47.2797 39.3186 47.2678 39.2351C47.3282 39.1791 47.3282 39.0905 47.3561 39.0299C47.4038 38.9603 47.4252 38.876 47.4165 38.792C47.4768 38.736 47.4768 38.6474 47.5047 38.5868H47.4165V38.3489C47.4768 38.2929 47.5326 38.2603 47.5604 38.2043V38.4095C47.5894 38.384 47.6123 38.3524 47.6275 38.3169C47.6428 38.2814 47.65 38.2429 47.6487 38.2043C47.6836 38.1395 47.7042 38.0679 47.7091 37.9944C47.7643 37.9291 47.7954 37.8468 47.7973 37.7612C47.8856 37.6446 47.9738 37.556 47.8577 37.4067L47.9459 37.1689C47.9738 37.2295 47.9738 37.2295 48.0017 37.1689C48.0564 37.1145 48.0881 37.0409 48.0899 36.9636H48.0017V36.7258H48.0899V36.9356C48.174 36.8353 48.2259 36.7117 48.2385 36.5812C48.285 36.5251 48.3083 36.4534 48.3036 36.3806C48.3942 36.2737 48.4451 36.1385 48.4476 35.9981L48.5358 35.7929H48.4476V35.5877C48.4402 35.5877 48.4331 35.5906 48.4278 35.5959C48.4226 35.6011 48.4197 35.6083 48.4197 35.6157C48.2711 35.9422 48.1549 36.236 48.0388 36.5485C48.0063 36.6092 48.0388 36.6698 48.0063 36.7258C48.0065 36.8135 47.9884 36.9003 47.9532 36.9807C47.918 37.061 47.8665 37.133 47.802 37.1922C47.6858 37.5187 47.5651 37.8125 47.4815 38.125C47.4552 38.201 47.435 38.279 47.4211 38.3582C47.3958 38.3918 47.3774 38.4302 47.3671 38.4711C47.3567 38.5119 47.3545 38.5544 47.3607 38.5961C47.286 38.6556 47.2349 38.74 47.2167 38.834L45.9488 42.6679C45.9014 42.7797 45.8822 42.9014 45.893 43.0224C45.8276 43.0787 45.7791 43.1521 45.7529 43.2344C45.7266 43.3168 45.7237 43.4049 45.7444 43.4888C45.5492 43.8565 45.4203 44.256 45.3636 44.6688C45.3065 44.7482 45.2669 44.8388 45.2474 44.9347C45.1267 45.2285 45.0384 45.5271 44.9502 45.8209C44.9547 45.9104 44.9453 46.0001 44.9223 46.0868C44.7799 46.3817 44.6813 46.696 44.6297 47.0196C44.6044 47.0532 44.586 47.0916 44.5757 47.1324C44.5653 47.1733 44.5632 47.2158 44.5693 47.2575C44.4347 47.4814 44.3537 47.7337 44.3325 47.9944C44.2083 48.2208 44.1383 48.4731 44.1281 48.7314C44.0983 48.7518 44.0744 48.7799 44.0589 48.8127C44.0434 48.8454 44.0368 48.8818 44.0399 48.9179ZM45.8977 43.4562H45.8094C45.8327 43.4282 45.8605 43.3769 45.893 43.4562H45.8977ZM46.102 42.57C46.1299 42.514 46.1624 42.4254 46.1903 42.3647V42.57H46.102ZM46.2507 42.1036C46.2785 42.0476 46.3064 41.959 46.3389 41.8983V42.1036H46.2507ZM46.6037 40.9842H46.6315L46.6037 41.0121V40.9842ZM46.6919 41.0121C46.6754 40.9963 46.6542 40.9865 46.6315 40.9842C46.6315 40.9562 46.6315 40.9235 46.6594 40.9235C46.6873 40.9235 46.6873 41.0075 46.6873 41.0448L46.6919 41.0121ZM46.9241 40.0793V40.3172C46.9079 40.3189 46.8915 40.3168 46.8762 40.3111C46.8609 40.3055 46.8471 40.2964 46.8359 40.2845C46.8638 40.2705 46.8638 40.1819 46.9102 40.1119L46.9241 40.0793ZM46.9845 39.8741V40.1119H46.9102C46.9081 40.0763 46.9132 40.0405 46.9252 40.0069C46.9371 39.9732 46.9557 39.9423 46.9799 39.9161L46.9845 39.8741ZM47.0728 39.6362V39.8741H46.9845C47.0024 39.8049 47.0306 39.7389 47.0681 39.6782L47.0728 39.6362ZM47.1331 39.431V39.6362H47.0728C47.0727 39.5771 47.0924 39.5196 47.1285 39.473L47.1331 39.431ZM47.2214 39.1931V39.431H47.1331L47.2214 39.1931ZM47.1331 41.8797V41.8517H47.161L47.1331 41.8797ZM47.2771 38.9879V39.1931H47.2214C47.2219 39.1348 47.2397 39.078 47.2725 39.0299L47.2771 38.9879ZM47.3654 38.75V38.9879H47.2771L47.3654 38.75ZM47.3654 38.75V38.5448H47.4257V38.75H47.3654ZM47.658 37.9524V38.1623H47.5697C47.5976 38.1437 47.5976 38.055 47.6533 37.9944L47.658 37.9524ZM47.7184 37.7192V37.9524H47.658C47.6586 37.8905 47.678 37.8303 47.7137 37.7799L47.7184 37.7192ZM47.8066 37.514V37.7799H47.7184L47.8066 37.514ZM47.8948 39.8134L47.867 39.7855H47.8948V39.8134ZM47.9552 37.1269V36.9217H48.011V37.1269H47.9552ZM48.2478 36.3293V36.5392H48.1596L48.2478 36.3293ZM48.3082 36.3293H48.2478C48.2711 36.3433 48.2711 36.3433 48.3036 36.3806L48.3082 36.3293ZM48.3965 35.9468C48.3903 35.9106 48.3921 35.8735 48.4017 35.838C48.4113 35.8026 48.4286 35.7697 48.4522 35.7416V35.9468H48.3965ZM48.4522 35.4804C48.4815 35.4562 48.5029 35.4237 48.5136 35.3871C48.5244 35.3505 48.524 35.3115 48.5126 35.2752C48.464 35.3566 48.4413 35.451 48.4476 35.5457L48.4522 35.4804ZM48.6287 37.8731C48.5876 37.8742 48.5471 37.8629 48.5126 37.8405H48.5404C48.5638 37.8439 48.5852 37.8557 48.6006 37.8737C48.6159 37.8917 48.6243 37.9147 48.624 37.9384L48.6287 37.8731ZM48.5404 35.2472C48.5875 35.2011 48.625 35.146 48.6505 35.0851C48.676 35.0242 48.6891 34.9588 48.6891 34.8927C48.7169 34.8321 48.7773 34.8041 48.8052 34.7435C48.8313 34.6784 48.8424 34.6082 48.8377 34.5383C48.7847 34.5795 48.7431 34.6338 48.7171 34.6959C48.6911 34.758 48.6814 34.8258 48.6891 34.8927C48.5683 35.0466 48.5683 35.1912 48.5358 35.3125L48.5404 35.2472ZM48.6891 37.4021H48.768C48.7123 37.4953 48.7123 37.4953 48.6844 37.4674L48.6891 37.4021ZM48.8377 34.5056L48.9538 34.389C48.9538 34.3004 48.9817 34.2397 48.9817 34.1558C48.9817 34.0718 49.0699 34.0625 49.1024 34.0065C49.1269 33.9411 49.1364 33.871 49.1303 33.8013C49.186 33.7407 49.2185 33.68 49.2464 33.6521C49.2693 33.575 49.2788 33.4945 49.2743 33.4142C49.3168 33.3592 49.3668 33.3105 49.4229 33.2696C49.4508 33.2976 49.4833 33.2976 49.4833 33.2696H49.4229V33.1157C49.3709 33.1578 49.3301 33.2122 49.3041 33.2741C49.2782 33.336 49.2679 33.4033 49.2743 33.4702C49.1843 33.5793 49.1336 33.7157 49.1303 33.8573C49.0776 33.8988 49.0363 33.9532 49.0103 34.0152C48.9843 34.0772 48.9745 34.1449 48.9817 34.2118C48.8936 34.3115 48.8413 34.4379 48.8331 34.5709L48.8377 34.5056ZM48.8377 34.7435C48.8656 34.7715 48.8934 34.7715 48.8934 34.7435H48.8377ZM49.2186 36.0121H49.2743C49.2325 36.0774 49.2325 36.1054 49.2325 36.0774L49.2186 36.0121ZM49.4183 33.1157C49.4667 33.0706 49.505 33.0157 49.5307 32.9545C49.5563 32.8934 49.5686 32.8275 49.5669 32.7612C49.6226 32.7332 49.6226 32.6726 49.6226 32.6119C49.5878 32.654 49.5682 32.7066 49.5669 32.7612C49.4809 32.8604 49.4288 32.9846 49.4183 33.1157ZM49.6226 32.584C49.69 32.5453 49.7498 32.4948 49.7991 32.4347C49.7991 32.3787 49.7713 32.3181 49.7713 32.2575C49.6977 32.3466 49.6468 32.4522 49.6226 32.5653V32.584ZM49.7713 32.2295C49.8316 32.2015 49.8595 32.1735 49.8595 32.1129C49.7991 32.1222 49.7713 32.1549 49.7713 32.2108V32.2295ZM49.7991 34.6222L49.7713 34.5896H49.7991V34.6222ZM49.8595 32.0849H49.9199C49.9478 32.0522 49.9477 31.9963 50.0081 31.9356V31.7164H50.0639V31.5672H50.1614V31.7164H50.1057V31.9217C50.1105 31.8502 50.1295 31.7805 50.1614 31.7164L50.2218 31.5672H50.1614C50.164 31.512 50.1853 31.4593 50.2218 31.4179V31.2127C50.1733 31.2578 50.135 31.3127 50.1094 31.3738C50.0838 31.435 50.0714 31.5009 50.0732 31.5672C50.0373 31.6086 50.0176 31.6616 50.0174 31.7164C49.9284 31.8128 49.873 31.9355 49.8595 32.0662V32.0849ZM50.0081 31.9636V32.0849C50.036 32.0522 50.036 31.9963 50.0639 31.9636H50.0081ZM50.3007 31.0308L50.3611 30.9422V30.8815C50.3286 30.9142 50.3286 30.9142 50.3286 30.9422C50.3179 30.9541 50.3099 30.9682 50.3051 30.9834C50.3003 30.9987 50.2988 31.0149 50.3007 31.0308ZM50.5376 30.4991C50.5655 30.4711 50.5655 30.4431 50.5933 30.3825C50.5637 30.415 50.5444 30.4555 50.5376 30.4991ZM50.5376 32.7425H50.5933C50.5655 32.8032 50.5376 32.8312 50.5376 32.8918V32.7425ZM50.5933 30.3545C50.612 30.3402 50.6271 30.3219 50.6375 30.3009C50.648 30.2799 50.6535 30.2567 50.6537 30.2332C50.6227 30.2672 50.6018 30.3092 50.5933 30.3545ZM50.6816 30.2332H50.742C50.7141 30.2052 50.6816 30.2052 50.6816 30.2332ZM50.8302 29.8508C50.8581 29.8228 50.8581 29.7621 50.8906 29.7341C50.8718 29.7471 50.8565 29.7646 50.8459 29.7849C50.8354 29.8052 50.83 29.8278 50.8302 29.8508ZM50.8906 29.7015H50.9463C50.9463 29.6735 50.9742 29.6455 50.9742 29.5849C50.9544 29.629 50.926 29.6687 50.8906 29.7015ZM51.3272 30.8256H51.3876C51.3876 30.8536 51.3597 30.8536 51.3272 30.8256ZM51.3876 30.8256V30.6763C51.4101 30.7226 51.4198 30.7742 51.4154 30.8256H51.3876ZM51.852 27.6073L51.9124 27.5187C51.8892 27.5467 51.8567 27.5793 51.8567 27.6073H51.852ZM52.0007 29.347H52.061C52.0285 29.4077 52.0007 29.4356 52.0007 29.4963V29.347ZM52.5905 28.0784C52.6046 28.0956 52.6244 28.1072 52.6462 28.111C52.6166 28.1435 52.5973 28.1841 52.5905 28.2276V28.0784ZM53.0271 27.3414C53.0288 27.2902 53.0193 27.2393 52.9992 27.1922H53.0271V27.3414ZM54.5598 23.7407C54.5571 23.717 54.5454 23.6954 54.5273 23.68C54.4683 23.7944 54.3999 23.9036 54.3229 24.0065C54.1546 24.2866 54.016 24.5836 53.9096 24.8927L53.9978 24.8041C54.2214 24.4694 54.4112 24.1132 54.5645 23.7407H54.5598ZM55.5909 22.3881V22.2715H55.6791L55.5909 22.3881ZM55.8278 22.0336V21.8843H55.8835L55.8278 22.0336ZM56.7938 20.3498H56.6638C56.6805 20.3321 56.7036 20.3217 56.7279 20.3208C56.7522 20.3199 56.7759 20.3287 56.7938 20.3452V20.3498ZM56.766 19.7901C56.7938 19.7901 56.7938 19.7621 56.8264 19.7621V19.7295C56.8264 19.7015 56.7938 19.7015 56.7938 19.7295C56.7938 19.7575 56.7938 19.7575 56.766 19.7855V19.7901Z" fill="black"/>
<path d="M63.2637 40.7696V40.8022C63.0547 40.9795 62.7621 41.0355 62.5578 41.2127C62.4806 41.2688 62.3882 41.2997 62.293 41.3013V41.2407C62.2326 41.2407 62.1723 41.2407 62.1444 41.3013C62.0991 41.3018 62.0551 41.3165 62.0185 41.3432C61.9819 41.37 61.9545 41.4075 61.94 41.4506C61.7914 41.4506 61.7031 41.5672 61.6149 41.6558C61.5308 41.6785 61.458 41.7317 61.4105 41.805C61.3223 41.833 61.234 41.861 61.2062 41.9496C61.1783 42.0383 61.0297 42.0103 60.9972 42.0989C60.9176 42.1305 60.8473 42.1818 60.7928 42.2481C60.7554 42.2594 60.7205 42.278 60.6902 42.3028C60.6599 42.3276 60.6348 42.3582 60.6163 42.3927C60.6374 42.3953 60.6589 42.3936 60.6793 42.3877C60.6997 42.3817 60.7188 42.3717 60.7352 42.3582C60.7517 42.3447 60.7653 42.328 60.7752 42.3091C60.7851 42.2902 60.7911 42.2694 60.7928 42.2481H60.9414C60.8365 42.4268 60.672 42.5623 60.477 42.6306C60.5274 42.5687 60.5681 42.4995 60.5977 42.4254C60.5404 42.4357 60.4865 42.4598 60.4404 42.4955C60.3943 42.5312 60.3575 42.5776 60.333 42.6306C60.2877 42.6311 60.2437 42.6458 60.2071 42.6725C60.1705 42.6993 60.1431 42.7368 60.1286 42.7799C60.0404 42.7799 59.98 42.8358 59.9196 42.9244C59.8589 42.9379 59.8026 42.9669 59.7562 43.0086C59.7099 43.0502 59.675 43.1032 59.6549 43.1623C59.6176 43.1632 59.5812 43.1747 59.55 43.1953C59.5188 43.2159 59.494 43.2449 59.4784 43.2789V43.3069H59.4505C59.4352 43.3089 59.4209 43.3159 59.41 43.3268C59.3991 43.3378 59.3921 43.3521 59.3902 43.3675C59.3449 43.3681 59.3009 43.3827 59.2643 43.4095C59.2277 43.4362 59.2002 43.4737 59.1858 43.5168C59.142 43.5204 59.0999 43.5357 59.064 43.5611C59.028 43.5865 58.9995 43.6212 58.9814 43.6614C58.9201 43.6735 58.8632 43.702 58.8166 43.7439C58.77 43.7857 58.7355 43.8394 58.7167 43.8993C58.6594 43.9096 58.6054 43.9336 58.5593 43.9694C58.5132 44.0051 58.4764 44.0514 58.4519 44.1045C58.3889 44.1123 58.3298 44.1392 58.2825 44.1818C58.2351 44.2243 58.2019 44.2803 58.1872 44.3424C57.9932 44.3971 57.8272 44.5238 57.7227 44.6968C57.6064 44.7357 57.5033 44.8069 57.4255 44.9021C57.3307 44.9615 57.242 45.0303 57.1608 45.1073C56.884 45.3179 56.6203 45.5454 56.3712 45.7882C56.1984 45.892 56.0418 46.0208 55.9067 46.1707C55.8185 46.2034 55.7627 46.2313 55.7302 46.32C55.7717 46.3184 55.8123 46.307 55.8486 46.2867C55.8849 46.2665 55.9159 46.2379 55.9392 46.2034C56.1265 46.1193 56.2954 45.9988 56.4362 45.8489C56.7256 45.6526 56.992 45.4242 57.2304 45.1679C57.3433 45.1216 57.4368 45.0376 57.4952 44.93C57.6057 44.897 57.7001 44.8239 57.7599 44.7248L58.085 44.5476C58.0225 44.6497 57.9423 44.7397 57.8482 44.8134L56.4548 46.0261C56.0443 46.3919 55.5904 46.7052 55.1032 46.959C54.795 47.1552 54.4413 47.2677 54.0768 47.2855C53.5578 47.2864 53.0585 47.0859 52.6834 46.7258C52.2508 46.3336 51.9017 45.8576 51.6569 45.3265C51.472 44.9924 51.333 44.6346 51.2436 44.2631C51.2208 44.0924 51.1385 43.9354 51.0113 43.82V43.7034C50.9961 43.6851 50.9745 43.6735 50.951 43.6707C50.8906 43.7313 50.8627 43.7593 50.8627 43.82C50.8627 43.8806 50.7745 43.848 50.7466 43.8806C50.4215 44.1744 50.1289 44.5009 49.8177 44.8134C49.767 44.8592 49.7355 44.9225 49.7294 44.9907C49.8177 44.9907 49.8502 44.9021 49.9059 44.8741C49.9812 44.822 50.0512 44.7627 50.1149 44.6968C50.2529 44.514 50.4085 44.3453 50.5794 44.1931C50.6955 44.0765 50.8441 43.9879 50.872 43.8106H51.0206C50.9761 43.9409 50.8936 44.0547 50.7838 44.1371C50.6013 44.3565 50.394 44.5537 50.166 44.7248C50.1421 44.7632 50.1219 44.8038 50.1057 44.8461C49.6736 45.3251 49.2806 45.8382 48.9306 46.3806C48.638 46.7631 48.4011 47.1735 48.1364 47.5606L47.932 47.8265C47.8628 47.9102 47.7708 47.9717 47.6673 48.0037C47.6512 48.0053 47.635 48.0032 47.6199 47.9976C47.6048 47.992 47.5911 47.983 47.58 47.9713C47.5688 47.9596 47.5604 47.9456 47.5554 47.9302C47.5504 47.9148 47.549 47.8985 47.5511 47.8825V47.8265C47.4908 47.8545 47.4629 47.8825 47.4025 47.9151C47.3421 47.9478 47.2864 47.9711 47.226 47.9151C47.1924 47.899 47.1639 47.874 47.1434 47.8427C47.1229 47.8115 47.1113 47.7752 47.1099 47.7379C47.1463 47.6637 47.1669 47.5827 47.1703 47.5C47.1855 47.4988 47.1997 47.4919 47.21 47.4807C47.2203 47.4694 47.2261 47.4547 47.226 47.4394H47.1703V47.2948C47.1941 47.2689 47.213 47.2389 47.226 47.2062H47.2864C47.3017 47.2042 47.316 47.1972 47.3269 47.1862C47.3379 47.1752 47.3448 47.1609 47.3468 47.1455C47.2585 47.0849 47.226 47.1175 47.226 47.2062C47.226 47.2948 47.1703 47.2621 47.1703 47.2948C47.082 47.3228 47.0217 47.4114 46.9613 47.472C46.9009 47.5327 46.9055 47.5886 46.8173 47.5606C46.7348 47.4951 46.6814 47.3996 46.6687 47.2948C46.6965 47.2193 46.7356 47.1485 46.7848 47.0849C47.2864 46.32 47.6673 45.5224 48.1364 44.7248L49.813 41.7724C50.4308 40.7416 50.9881 39.6502 51.5455 38.5868C52.075 37.6539 52.6044 36.7211 53.106 35.7556L54.3415 33.3629C55.015 32.0336 55.7349 30.7369 56.4269 29.4077C57.0725 28.2556 57.6902 27.0476 58.3637 25.8955C59.0084 24.7022 59.7249 23.5496 60.5095 22.444C60.686 22.2341 60.8625 22.0289 61.039 21.8517C61.0678 21.8181 61.1081 21.7966 61.152 21.7914C61.1958 21.7862 61.24 21.7978 61.2758 21.8237C61.3185 21.8513 61.3505 21.8927 61.3665 21.941C61.3826 21.9894 61.3817 22.0418 61.3641 22.0896C61.3682 22.1305 61.3584 22.1716 61.3362 22.2062C61.1272 22.5606 60.9507 22.9151 60.7742 23.2696C60.5203 23.6502 60.3041 24.0548 60.1286 24.4776C60.0906 24.6447 60.0212 24.803 59.9243 24.944C59.6401 25.4597 59.3842 25.9907 59.1579 26.5345L58.8049 27.2155C58.6089 27.5337 58.4426 27.8694 58.308 28.2183C58.2801 28.2789 58.2801 28.3675 58.2197 28.4235C58.0653 28.7108 57.9272 29.0067 57.8064 29.3097C57.6624 29.5756 57.5137 29.8694 57.3419 30.1353C57.2146 30.3365 57.1161 30.5548 57.0493 30.7836L56.9889 30.8722C56.961 30.9328 56.9285 30.9608 56.9285 31.0215C56.8538 31.0809 56.8027 31.1653 56.7845 31.2593C56.6349 31.4782 56.5162 31.7168 56.4316 31.9683C56.4299 31.9842 56.4315 32.0003 56.4363 32.0155C56.4411 32.0308 56.449 32.0448 56.4594 32.0569H56.4316C56.4316 32.1129 56.4037 32.1455 56.4037 32.2015H56.3154C56.2829 32.2621 56.2829 32.2901 56.2551 32.3507C56.2272 32.4114 56.0786 32.584 56.0786 32.7332V32.7052C55.998 32.8256 55.9295 32.9537 55.8742 33.0877H55.9625L55.9021 33.1483V33.1763C55.8649 33.2173 55.8435 33.2702 55.8417 33.3256V33.3022C55.8138 33.3629 55.8138 33.4235 55.786 33.4795H55.6977C55.6892 33.5248 55.6683 33.5668 55.6373 33.6007C55.6373 33.6287 55.6652 33.6567 55.6652 33.6894H55.6373C55.6307 33.738 55.6214 33.7863 55.6095 33.834H55.5212C55.4454 33.8932 55.3927 33.9775 55.3726 34.0718C55.3726 34.1278 55.3447 34.1605 55.3447 34.2211C55.3112 34.2447 55.2831 34.2752 55.2623 34.3106C55.2415 34.346 55.2284 34.3854 55.224 34.4263C55.1936 34.469 55.1744 34.5188 55.1682 34.5709C55.0924 34.6302 55.0398 34.7144 55.0196 34.8088C54.8963 34.9518 54.8144 35.126 54.7827 35.3125C54.6307 35.4759 54.529 35.68 54.4901 35.9002C54.4502 35.9267 54.4165 35.9618 54.3916 36.0029C54.3667 36.0441 54.3512 36.0902 54.3461 36.1381C54.3136 36.166 54.3136 36.2267 54.2858 36.2827C54.2579 36.3386 54.2579 36.3153 54.2254 36.3433C54.2241 36.3979 54.2044 36.4505 54.1697 36.4925C54.0152 36.6549 53.9118 36.8593 53.8724 37.0802C53.7658 37.1847 53.6943 37.3201 53.668 37.4674C53.6108 37.5234 53.5705 37.5945 53.5519 37.6726C53.5183 37.7139 53.4973 37.7641 53.4915 37.8172C53.4263 37.8854 53.3757 37.9664 53.3429 38.055H53.3754C53.2996 38.1143 53.247 38.1985 53.2268 38.2929C53.1955 38.3164 53.1708 38.3477 53.1553 38.3837C53.1399 38.4197 53.1341 38.4592 53.1386 38.4981C53.1107 38.5588 53.0828 38.5868 53.0828 38.6474C53.0457 38.6699 53.0134 38.6997 52.9878 38.7349C52.9623 38.7702 52.9441 38.8102 52.9342 38.8526C52.8774 38.9216 52.8376 39.0031 52.8181 39.0905C52.7667 39.1349 52.7247 39.1891 52.6944 39.2499C52.6641 39.3108 52.6461 39.3771 52.6416 39.445C52.6251 39.4608 52.6039 39.4706 52.5812 39.473C52.5824 39.4882 52.5893 39.5025 52.6005 39.5128C52.6117 39.5232 52.6263 39.529 52.6416 39.5289V39.473H52.7298V39.445C52.7354 39.4583 52.7436 39.4705 52.7539 39.4806C52.7642 39.4907 52.7765 39.4986 52.7899 39.5038C52.8034 39.5091 52.8177 39.5115 52.8322 39.511C52.8466 39.5105 52.8608 39.5071 52.8738 39.5009C52.9946 39.445 53.1386 39.4123 53.2547 39.3517C54.3136 38.8526 55.4005 38.3815 56.4316 37.8172C56.8403 37.6119 57.2536 37.4067 57.667 37.1688L57.8435 37.0802C57.8798 37.0693 57.9184 37.0693 57.9547 37.08C57.9909 37.0908 58.0233 37.1119 58.0479 37.1409C58.1083 37.2015 58.0479 37.2575 58.0479 37.3181C58.1198 37.3221 58.1897 37.3429 58.2522 37.3787C58.3683 37.4347 58.3683 37.4674 58.3126 37.6119C58.3126 37.6446 58.2847 37.6446 58.2847 37.6726C58.1965 37.7006 58.1361 37.7285 58.1082 37.8172C58.1852 37.7965 58.2556 37.7564 58.3126 37.7006H58.3683C58.4566 37.7285 58.4891 37.7892 58.4566 37.8498C58.3858 37.9079 58.3077 37.9565 58.2244 37.9944C57.7599 38.2929 57.2954 38.5588 56.8728 38.8526C56.6679 38.9788 56.471 39.1174 56.2829 39.2677C56.2586 39.3001 56.2279 39.3271 56.1927 39.3472C56.1576 39.3672 56.1187 39.3799 56.0786 39.3843L56.139 39.2351C56.0932 39.236 56.0488 39.2507 56.0115 39.2773C55.9742 39.304 55.9458 39.3412 55.9299 39.3843C55.7368 39.4407 55.5713 39.567 55.4655 39.7388C55.3494 39.7948 55.2286 39.8554 55.2007 39.972C55.0846 40.0047 54.9639 40.0606 54.936 40.1819C54.8478 40.2099 54.7595 40.2379 54.7316 40.3265C54.6195 40.3741 54.5264 40.4578 54.4669 40.5644C54.4084 40.5713 54.3529 40.594 54.3062 40.6302C54.2596 40.6663 54.2236 40.7145 54.2022 40.7696C53.9482 40.8812 53.7331 41.0663 53.5844 41.3013C53.5279 41.3137 53.4748 41.3385 53.4291 41.374C53.3833 41.4095 53.3459 41.4548 53.3197 41.5065C53.2918 41.5392 53.2593 41.5392 53.2593 41.5952C53.2025 41.607 53.1493 41.6322 53.1041 41.6687C53.0589 41.7052 53.023 41.7519 52.9992 41.805C52.9667 41.833 52.9388 41.861 52.9388 41.8937C52.7902 41.9216 52.702 41.9823 52.6741 42.0989C52.378 42.2523 52.1327 42.4889 51.9681 42.7799C52.0564 42.8078 52.0842 42.7192 52.1168 42.6912C52.2329 42.6026 52.2932 42.514 52.4094 42.4813C52.336 42.6441 52.2244 42.7865 52.0842 42.8965C52.0105 42.9614 51.9553 43.0449 51.9242 43.1383C51.8932 43.2317 51.8875 43.3318 51.9077 43.4282C52.0334 44.1642 52.231 44.8859 52.4976 45.583C52.6031 45.7965 52.721 46.0037 52.8506 46.2034C52.9067 46.2935 52.9847 46.3678 53.0774 46.4192C53.17 46.4707 53.2742 46.4975 53.3801 46.4972C53.6082 46.5133 53.8372 46.4832 54.0535 46.4086C54.3783 46.2706 54.6894 46.1019 54.9825 45.9049C55.5677 45.4384 56.1854 45.0513 56.7753 44.6082C57.3651 44.1651 57.8621 43.722 58.4194 43.3069C59.1533 42.7472 59.8918 42.1875 60.6535 41.6558C61.143 41.278 61.6635 40.9426 62.2094 40.653C62.3859 40.5644 62.5624 40.5037 62.7389 40.4151C62.8207 40.3816 62.9097 40.3696 62.9975 40.3802C63.0853 40.3908 63.1689 40.4237 63.2405 40.4757C63.3566 40.5644 63.2684 40.625 63.2684 40.7136C63.2684 40.8022 63.2033 40.7696 63.2637 40.7696ZM46.9799 47.5746C47.0077 47.5466 47.0402 47.514 47.0402 47.486C47.0402 47.458 47.0077 47.5466 47.0077 47.5746H46.9799ZM47.1285 47.4254V47.486H47.0681C47.072 47.4728 47.0799 47.4613 47.0908 47.4529C47.1016 47.4445 47.1148 47.4398 47.1285 47.4394V47.4254ZM47.3932 47.1315H47.3328V47.1922C47.3328 47.1735 47.3746 47.1735 47.3746 47.1455L47.3932 47.1315ZM48.3593 46.5438C48.2585 46.6067 48.1779 46.6974 48.1271 46.805C48.08 46.8453 48.0424 46.8953 48.0167 46.9517C47.991 47.0081 47.978 47.0695 47.9784 47.1315C48.0629 47.0569 48.1323 46.9666 48.1828 46.8657C48.2696 46.782 48.3309 46.6752 48.3593 46.5578V46.5438ZM48.977 44.0345C48.7732 44.2948 48.6059 44.582 48.4801 44.8881C48.4475 44.916 48.4197 44.9487 48.4475 44.9767C48.4754 45.0047 48.4801 44.9487 48.5079 44.9161C48.5878 44.8269 48.6564 44.7282 48.7123 44.6222C48.7657 44.5135 48.8362 44.4143 48.9213 44.3284C48.9298 44.2333 48.9485 44.1395 48.977 44.0485V44.0345ZM49.4415 43.2929C49.4026 43.3112 49.3705 43.3414 49.3497 43.379C49.3288 43.4167 49.3203 43.46 49.3254 43.5028C49.2851 43.5256 49.2525 43.56 49.2318 43.6016C49.2111 43.6431 49.2033 43.6899 49.2092 43.736C49.0606 43.7687 49.0328 43.8853 49.0002 44.0019L49.2092 43.8853C49.2092 43.9132 49.2371 43.9739 49.2371 44.0019L49.265 43.8853H49.2092V43.75C49.2371 43.722 49.2975 43.694 49.3254 43.6614C49.3254 43.722 49.3532 43.75 49.3532 43.8106C49.3532 43.75 49.3811 43.722 49.3811 43.6614H49.3254V43.5168C49.3562 43.4841 49.3971 43.4627 49.4415 43.4562V43.2929ZM49.7666 42.9991H49.6969C49.7041 42.9491 49.6943 42.8981 49.6691 42.8545C49.5808 42.8825 49.5808 42.9711 49.5483 43.0597C49.5111 43.0788 49.4803 43.1084 49.4596 43.1448C49.439 43.1813 49.4294 43.2231 49.4322 43.2649C49.4926 43.2649 49.5204 43.2369 49.5808 43.2043V43.3769C49.6087 43.3162 49.6087 43.2883 49.6366 43.2276H49.5808C49.5549 43.1841 49.5435 43.1335 49.5483 43.083C49.6087 43.055 49.6366 43.0224 49.6969 43.0224V43.139C49.7251 43.1029 49.7414 43.0589 49.7434 43.0131L49.7666 42.9991ZM49.5297 43.4655H49.4693V43.5821C49.4786 43.5448 49.4786 43.4841 49.5065 43.4562L49.5297 43.4655ZM49.8223 42.6399L49.9431 42.5513V42.444C49.9074 42.4632 49.8761 42.4897 49.8513 42.5219C49.8265 42.554 49.8087 42.5911 49.7991 42.6306L49.8223 42.6399ZM50.1614 41.9776C50.1057 42.0056 50.0731 42.0942 50.0453 42.1828C49.9955 42.2443 49.9563 42.3137 49.9292 42.3881C49.9847 42.3308 50.0247 42.2601 50.0453 42.1828C50.0821 42.1633 50.1126 42.1336 50.1332 42.0973C50.1538 42.0609 50.1635 42.0194 50.1614 41.9776ZM50.0174 42.5653H49.9292C49.9513 42.6016 49.9611 42.6442 49.957 42.6866C49.9619 42.6434 49.9797 42.6027 50.0081 42.57L50.0174 42.5653ZM50.1939 41.945C50.2395 41.8808 50.2784 41.812 50.31 41.7397C50.2734 41.7615 50.2427 41.792 50.2208 41.8287C50.1989 41.8654 50.1864 41.9069 50.1846 41.9496L50.1939 41.945ZM50.8116 42.2435C50.8116 42.1549 50.6909 42.2715 50.3983 42.8032C50.3704 42.8918 50.31 42.9804 50.2821 43.069C50.2782 43.0725 50.275 43.0768 50.2729 43.0817C50.2707 43.0865 50.2696 43.0917 50.2696 43.097C50.2696 43.1023 50.2707 43.1075 50.2729 43.1124C50.275 43.1172 50.2782 43.1215 50.2821 43.125H50.3379C50.3983 43.041 50.4586 42.9804 50.5144 42.8918C50.6377 42.6907 50.7345 42.4743 50.8023 42.2481L50.8116 42.2435ZM50.8674 43.2136C50.8674 43.1856 50.8674 43.1577 50.8116 43.125C50.7947 43.1413 50.7833 43.1625 50.7791 43.1856C50.7698 43.2183 50.8023 43.2183 50.8581 43.2183L50.8674 43.2136ZM51.7963 41.6791C51.811 41.6963 51.8207 41.7173 51.8241 41.7397H51.9124C52.2932 41.4739 52.5905 41.1521 52.9435 40.8535C52.9502 40.8483 52.9557 40.8416 52.9595 40.8339C52.9632 40.8262 52.9652 40.8178 52.9652 40.8092C52.9652 40.8007 52.9632 40.7922 52.9595 40.7846C52.9557 40.7769 52.9502 40.7702 52.9435 40.7649C52.9264 40.7501 52.9054 40.7404 52.8831 40.7369C52.7031 40.7854 52.5332 40.866 52.3815 40.9748C52.2654 41.0308 52.1771 41.1521 52.0285 41.18C51.8009 41.2733 51.8009 41.4785 51.8009 41.6838L51.7963 41.6791ZM51.852 42.3321L51.9124 42.2715H51.8241C51.8567 42.2761 51.8567 42.3041 51.8567 42.3368L51.852 42.3321ZM51.9403 40.9748C51.9455 40.9816 51.9522 40.9871 51.9598 40.9909C51.9675 40.9946 51.9759 40.9966 51.9844 40.9966C51.9929 40.9966 52.0013 40.9946 52.009 40.9909C52.0166 40.9871 52.0233 40.9816 52.0285 40.9748C52.2058 40.8825 52.3738 40.7731 52.5301 40.6483C52.317 40.6609 52.1171 40.7563 51.9728 40.9142C51.9449 40.9188 51.9449 40.9795 51.9449 40.9795L51.9403 40.9748ZM52.1168 39.7341C52.1932 39.6969 52.2567 39.6374 52.299 39.5633C52.3412 39.4892 52.3603 39.4041 52.3536 39.319C52.2273 39.4254 52.1446 39.5749 52.1214 39.7388L52.1168 39.7341ZM52.1771 41.9776C52.1667 41.9656 52.1588 41.9515 52.154 41.9362C52.1492 41.921 52.1476 41.9049 52.1493 41.889C52.1454 41.911 52.1339 41.9308 52.1168 41.945C52.1293 41.9455 52.1416 41.9486 52.1528 41.9543C52.164 41.9599 52.1739 41.9678 52.1818 41.9776H52.1771ZM52.2375 41.889C52.2375 41.8563 52.205 41.8284 52.205 41.8004C52.205 41.7724 52.1771 41.8563 52.1771 41.889H52.2375ZM53.5566 41.2966H53.6773C53.6453 41.3763 53.5943 41.4468 53.5287 41.5019L52.5301 42.3881L52.3536 42.4767C52.3851 42.3968 52.4362 42.3262 52.5023 42.2715C52.5493 42.2289 52.5886 42.1784 52.6184 42.1222C52.6767 42.105 52.7307 42.0752 52.7764 42.035C52.8221 41.9947 52.8585 41.9449 52.8831 41.889C52.8984 41.887 52.9127 41.88 52.9236 41.8691C52.9346 41.8581 52.9415 41.8438 52.9435 41.8284C53.002 41.8113 53.0559 41.781 53.101 41.7397C53.1461 41.6985 53.1812 41.6474 53.2036 41.5905C53.2188 41.5905 53.2335 41.5848 53.2447 41.5744C53.2559 41.564 53.2628 41.5498 53.264 41.5345C53.3265 41.5255 53.385 41.4981 53.4322 41.4558C53.4793 41.4135 53.5129 41.3581 53.5287 41.2966H53.5566ZM52.3815 39.291C52.4419 39.2631 52.4697 39.1744 52.5023 39.0858C52.5391 39.0651 52.5695 39.0345 52.59 38.9974C52.6105 38.9604 52.6203 38.9183 52.6184 38.8759C52.7066 38.82 52.7066 38.7313 52.7345 38.6707C52.7001 38.6893 52.6696 38.7145 52.6449 38.7449C52.6202 38.7753 52.6017 38.8104 52.5905 38.848C52.5587 38.8783 52.5343 38.9154 52.519 38.9566C52.5037 38.9979 52.498 39.042 52.5023 39.0858C52.4647 39.1057 52.4337 39.1361 52.413 39.1734C52.3924 39.2107 52.3831 39.2532 52.3861 39.2957L52.3815 39.291ZM52.558 40.6203C52.6085 40.6225 52.6588 40.6127 52.7049 40.5916C52.7509 40.5705 52.7913 40.5388 52.8227 40.4991C52.7717 40.4891 52.7187 40.496 52.6719 40.5187C52.625 40.5414 52.5867 40.5787 52.5626 40.625L52.558 40.6203ZM52.8552 39.0858H52.767C52.7995 39.0578 52.8274 39.0578 52.8599 39.0905L52.8552 39.0858ZM52.9435 41.236C52.911 41.2687 52.8831 41.2687 52.8227 41.2966L52.767 41.3573H52.8227V41.2966C52.8552 41.3293 52.8831 41.3573 52.911 41.3573L52.9435 41.236ZM52.7949 38.4655C52.8552 38.4049 52.911 38.3769 52.911 38.2882C52.8599 38.3209 52.8274 38.4095 52.7995 38.4702L52.7949 38.4655ZM52.8227 40.4711C52.8461 40.4709 52.8692 40.4654 52.8901 40.4548C52.911 40.4443 52.9293 40.4291 52.9435 40.4105C52.8995 40.4211 52.8594 40.4437 52.8274 40.4757L52.8227 40.4711ZM52.911 38.9972L52.8552 39.0858C52.8599 39.0578 52.8878 39.0299 52.9156 39.0019L52.911 38.9972ZM52.911 38.2556C52.9445 38.232 52.9726 38.2015 52.9934 38.1661C53.0142 38.1307 53.0273 38.0912 53.0317 38.0504C52.9785 38.1058 52.9388 38.1729 52.9156 38.2463L52.911 38.2556ZM52.9714 38.848C52.9435 38.9086 52.9435 38.9366 52.911 38.9972V38.8526L52.9714 38.848ZM52.9714 40.4105C52.9936 40.4105 53.0157 40.4054 53.0358 40.3958C53.0559 40.3861 53.0735 40.372 53.0875 40.3545C53.065 40.3527 53.0426 40.3574 53.0228 40.3682C53.003 40.3789 52.9867 40.3952 52.976 40.4151L52.9714 40.4105ZM52.9992 39.8228L53.0875 39.7621C53.0642 39.7668 53.0364 39.7948 53.0039 39.8274L52.9992 39.8228ZM53.0875 38.6427V38.4935H53.1478C53.12 38.5261 53.12 38.5868 53.0921 38.6474L53.0875 38.6427ZM53.1153 40.3218C53.2887 40.3077 53.4523 40.2354 53.5798 40.1166C53.6355 40.1166 53.668 40.0886 53.6959 40.028C53.6355 40.056 53.6077 40.056 53.5798 40.1166C53.4077 40.1338 53.246 40.2076 53.12 40.3265L53.1153 40.3218ZM53.264 38.2882H53.1757C53.2036 38.2882 53.2361 38.2556 53.264 38.2556V38.2882ZM53.4126 38.0504H53.3243C53.3299 38.0439 53.3369 38.0387 53.3447 38.0353C53.3526 38.032 53.3611 38.0304 53.3696 38.0309C53.3781 38.0313 53.3864 38.0338 53.3939 38.0379C53.4014 38.0421 53.4077 38.048 53.4126 38.055V38.0504ZM53.4126 37.3134C53.4167 37.3135 53.4207 37.3126 53.4244 37.311C53.4282 37.3093 53.4315 37.3068 53.4341 37.3037C53.4368 37.3006 53.4387 37.2969 53.4398 37.2929C53.4409 37.289 53.4411 37.2848 53.4405 37.2808C53.4683 37.2808 53.4683 37.2528 53.4405 37.2528C53.4126 37.2528 53.4126 37.2575 53.4126 37.3134ZM53.4683 39.6129C53.5008 39.6129 53.5566 39.5849 53.5566 39.5522L53.4683 39.6129ZM53.5287 37.8405C53.5307 37.7908 53.5211 37.7413 53.5008 37.6959H53.5891C53.5612 37.7285 53.5612 37.7799 53.5333 37.8172L53.5287 37.8405ZM53.7331 37.4907H53.6169C53.6495 37.4347 53.682 37.4347 53.7377 37.4674L53.7331 37.4907ZM53.8213 40.4991C53.7451 40.5234 53.6816 40.5771 53.6448 40.6483C53.7331 40.6763 53.7934 40.6157 53.8213 40.4991H53.9096C53.8935 40.4828 53.8836 40.4613 53.8817 40.4384C53.877 40.4478 53.877 40.4478 53.826 40.4757L53.8213 40.4991ZM53.7331 41.236H53.7656L53.6773 41.3246C53.6945 41.3112 53.7088 41.2943 53.7192 41.275C53.7296 41.2557 53.7359 41.2345 53.7377 41.2127L53.7331 41.236ZM53.7331 40.056C53.7569 40.0591 53.7812 40.055 53.8027 40.0442C53.8242 40.0334 53.842 40.0164 53.8538 39.9953C53.8141 40.0044 53.7753 40.0169 53.7377 40.0327L53.7331 40.056ZM53.9421 41.0914C53.9328 41.1318 53.9104 41.1679 53.8785 41.1941C53.8465 41.2202 53.8068 41.235 53.7656 41.236C53.7821 41.1966 53.8067 41.1613 53.838 41.1323C53.8692 41.1033 53.9063 41.0814 53.9467 41.0681L53.9421 41.0914ZM53.8213 37.2528V37.0802H53.877C53.877 37.1409 53.877 37.1688 53.826 37.2295L53.8213 37.2528ZM53.9096 40.4384C53.9106 40.4542 53.9173 40.469 53.9284 40.4801C53.9395 40.4912 53.9543 40.498 53.9699 40.4991C53.9978 40.4711 53.9978 40.4105 54.0303 40.3825C53.9904 40.3886 53.9514 40.3995 53.9142 40.4151L53.9096 40.4384ZM53.9421 41.0914L54.0303 41.0308C54.0024 41.0448 53.9746 41.0681 53.9467 41.0681L53.9421 41.0914ZM54.4065 40.5877H54.5552C54.5033 40.6976 54.4295 40.7957 54.3385 40.8759C54.2474 40.9561 54.141 41.0168 54.0257 41.0541C54.0535 40.9655 54.1418 40.9375 54.1418 40.8162C54.2079 40.815 54.2715 40.7905 54.3216 40.747C54.3716 40.7036 54.405 40.6439 54.4158 40.5784L54.4065 40.5877ZM54.0814 40.2938H54.1697C54.1592 40.2818 54.1513 40.2677 54.1465 40.2524C54.1418 40.2372 54.1401 40.2211 54.1418 40.2052L54.0814 40.2938ZM54.2022 36.5159C54.207 36.4639 54.1956 36.4118 54.1697 36.3666H54.2579C54.2393 36.4039 54.2115 36.4319 54.2115 36.4925L54.2022 36.5159ZM54.23 39.2584C54.2915 39.2598 54.3525 39.2475 54.4087 39.2226C54.4649 39.1976 54.5149 39.1604 54.5552 39.1138C54.5963 39.08 54.6463 39.0589 54.6991 39.0532C54.6719 39.0494 54.6442 39.053 54.6189 39.0637C54.5935 39.0744 54.5715 39.0917 54.5552 39.1138C54.4384 39.1129 54.3257 39.1562 54.2393 39.2351L54.23 39.2584ZM54.2579 36.3666V36.306H54.3415C54.3268 36.3034 54.3116 36.3056 54.2982 36.3123C54.2848 36.319 54.2739 36.3299 54.2672 36.3433L54.2579 36.3666ZM54.3787 36.1614C54.3461 36.1894 54.3461 36.25 54.3183 36.278V36.1614H54.3787ZM54.8756 40.2052H55.0243C54.9763 40.2969 54.9104 40.3781 54.8306 40.4437C54.7509 40.5094 54.6588 40.5584 54.5598 40.5877C54.5877 40.4991 54.648 40.4384 54.6759 40.3498C54.7246 40.3499 54.7718 40.3333 54.8098 40.3028C54.8478 40.2723 54.8743 40.2296 54.8849 40.1819L54.8756 40.2052ZM54.9917 34.8321H54.9639L54.9917 34.8041V34.8321ZM54.9917 34.9487V34.8321H55.0521C55.0335 34.8368 55.0335 34.8974 55.001 34.9254L54.9917 34.9487ZM54.9917 38.8759C55.0193 38.8762 55.0466 38.8709 55.0721 38.8605C55.0976 38.8501 55.1208 38.8347 55.1404 38.8153C55.1218 38.8246 55.0614 38.8246 55.001 38.8526L54.9917 38.8759ZM55.08 40.1446L55.0243 40.2052C55.0172 40.195 55.0134 40.1829 55.0134 40.1705C55.0134 40.1581 55.0172 40.146 55.0243 40.1358C55.0314 40.1256 55.0414 40.1179 55.0531 40.1136C55.0647 40.1093 55.0773 40.1088 55.0893 40.1119L55.08 40.1446ZM55.1404 39.9953H55.289C55.2408 40.07 55.166 40.1233 55.08 40.1446C55.1218 40.0606 55.1218 40.0047 55.1497 39.972L55.1404 39.9953ZM55.1682 34.5942V34.4496H55.2286L55.1682 34.5942ZM58.7864 43.3302C58.6337 43.3935 58.5006 43.4966 58.4009 43.6287C58.373 43.6567 58.3451 43.6567 58.3451 43.6847C58.0846 43.8125 57.8536 43.9936 57.667 44.2164C57.6083 44.2247 57.5529 44.2485 57.5064 44.2854C57.4598 44.3223 57.4239 44.3709 57.4023 44.4263C57.3034 44.4559 57.2114 44.5049 57.1317 44.5706C57.0519 44.6362 56.986 44.7172 56.9378 44.8088C56.7462 44.8718 56.5737 44.9825 56.4362 45.1306C56.2629 45.2354 56.1063 45.366 55.9717 45.5177C55.8934 45.5493 55.8234 45.5988 55.7674 45.6623C55.6885 45.6971 55.6255 45.7604 55.5909 45.8396C55.5026 45.8396 55.4423 45.9002 55.3865 45.9888C55.3308 46.0774 55.2983 46.0168 55.2658 46.0494C55.3078 46.0331 55.3483 46.0128 55.3865 45.9888C55.4748 45.9608 55.563 45.9282 55.5909 45.8396C55.6294 45.8412 55.6678 45.8341 55.7032 45.8188C55.7386 45.8034 55.7701 45.7802 55.7953 45.7509V45.695L55.8556 45.7509H55.8835C55.9152 45.6962 55.9561 45.6473 56.0043 45.6063V45.5224C56.0321 45.5504 56.06 45.5504 56.06 45.583C56.1342 45.54 56.2042 45.49 56.269 45.4338C56.3725 45.3902 56.4624 45.3193 56.5291 45.2285C56.693 45.1328 56.8341 45.0023 56.9425 44.8461V44.7761C56.9703 44.7761 56.9703 44.8041 57.0028 44.8368C57.1793 44.7155 57.3233 44.5989 57.4673 44.4823C57.5509 44.4178 57.6204 44.3369 57.6717 44.2444V44.1838C57.7042 44.1838 57.7042 44.2164 57.732 44.2444L58.4055 43.7407C58.3776 43.7127 58.3498 43.6847 58.3498 43.6521H58.4055V43.7127C58.4215 43.7127 58.4369 43.7063 58.4482 43.6949C58.4595 43.6836 58.4659 43.6681 58.4659 43.6521C58.6192 43.5728 58.7956 43.4841 58.7956 43.3069L58.7864 43.3302ZM55.4051 39.7621H55.5537C55.5292 39.818 55.4927 39.8678 55.447 39.9081C55.4013 39.9484 55.3474 39.9782 55.289 39.9953C55.3262 39.8834 55.4144 39.8274 55.4144 39.7388L55.4051 39.7621ZM55.3262 38.7127C55.3865 38.7127 55.4423 38.7127 55.4748 38.6567C55.6038 38.6401 55.7258 38.5885 55.8278 38.5075C55.6188 38.5075 55.5305 38.5355 55.4748 38.6567C55.4202 38.6569 55.3674 38.6767 55.3262 38.7127ZM55.7674 39.5989C55.7196 39.672 55.647 39.725 55.563 39.7481C55.5845 39.7091 55.6137 39.6749 55.6489 39.6476C55.684 39.6203 55.7243 39.6006 55.7674 39.5896V39.5989ZM55.707 46.3573C55.6513 46.3573 55.6188 46.3899 55.5909 46.3899C55.6336 46.3918 55.6753 46.3767 55.707 46.348V46.3573ZM55.8835 39.3937H56.0321C56.0067 39.4461 55.9696 39.4918 55.9237 39.5274C55.8778 39.563 55.8243 39.5875 55.7674 39.5989L55.8835 39.3937ZM56.8124 31.2453C56.8012 31.2572 56.7874 31.2663 56.7721 31.2719C56.7568 31.2776 56.7404 31.2797 56.7242 31.278C56.766 31.25 56.7938 31.25 56.8263 31.25L56.8124 31.2453ZM57.5927 38.1157C57.6531 38.083 57.7413 38.055 57.7692 37.9664C57.8296 37.9664 57.89 37.9664 57.9178 37.9058C57.8628 37.9084 57.8104 37.9298 57.7692 37.9664C57.7294 37.9737 57.6921 37.9913 57.6612 38.0175C57.6302 38.0437 57.6066 38.0775 57.5927 38.1157ZM57.9178 37.8778C57.9782 37.8778 58.0061 37.8498 58.0339 37.8498C57.9917 37.8446 57.9489 37.8545 57.9132 37.8778H57.9178ZM58.1826 44.3424H58.3265C58.2679 44.4405 58.1753 44.5135 58.0664 44.5476C58.0976 44.476 58.1349 44.4074 58.1779 44.3424H58.1826ZM58.3869 44.2537C58.3789 44.29 58.3573 44.3217 58.3265 44.3424V44.3097C58.3544 44.3097 58.3544 44.2817 58.3823 44.2537H58.3869ZM58.4473 44.1045H58.5913C58.5634 44.1931 58.4752 44.2257 58.3869 44.2537C58.4101 44.1931 58.4427 44.1651 58.4427 44.1045H58.4473ZM58.4752 43.6381H58.4148V43.5821C58.4242 43.5824 58.4334 43.5848 58.4416 43.5893C58.4499 43.5937 58.457 43.6 58.4624 43.6077C58.4678 43.6154 58.4714 43.6243 58.4728 43.6336C58.4742 43.6429 58.4734 43.6524 58.4705 43.6614L58.4752 43.6381ZM58.5913 44.1045C58.6238 44.0159 58.712 43.9879 58.712 43.8993H58.856C58.8351 43.9556 58.7987 44.0048 58.751 44.0411C58.7033 44.0775 58.6463 44.0994 58.5866 44.1045H58.5913ZM59.0047 43.1716C58.9672 43.172 58.9306 43.1832 58.8993 43.2039C58.868 43.2246 58.8433 43.2538 58.8282 43.2882C58.9396 43.2789 58.9861 43.2789 58.9861 43.1623L59.0047 43.1716ZM59.0047 43.6707H59.1208C59.0929 43.792 59.0047 43.848 58.856 43.8806C58.8839 43.8106 58.9861 43.75 58.9861 43.6614L59.0047 43.6707ZM59.209 43.0224C59.1707 43.0185 59.1323 43.0279 59.1001 43.0492C59.068 43.0704 59.0441 43.1021 59.0325 43.139C59.1486 43.1297 59.1765 43.1297 59.2044 43.0131L59.209 43.0224ZM59.6502 43.1716H59.7989C59.6422 43.4166 59.4005 43.5944 59.1208 43.6707C59.1544 43.6294 59.1754 43.5792 59.1811 43.5261C59.2273 43.5296 59.2732 43.5166 59.3106 43.4892C59.3481 43.4619 59.3746 43.4221 59.3855 43.3769C59.4459 43.3769 59.4459 43.3489 59.4738 43.3162C59.5016 43.2836 59.6177 43.2509 59.6456 43.1623L59.6502 43.1716ZM59.771 42.6399C59.7668 42.6168 59.7554 42.5956 59.7385 42.5793L59.6828 42.6399C59.6426 42.6463 59.6049 42.6635 59.5738 42.6898C59.5427 42.7162 59.5193 42.7505 59.5063 42.7892C59.6224 42.7892 59.6502 42.7565 59.6828 42.6399H59.771ZM60.2958 42.1735C60.0904 42.2381 59.908 42.3612 59.771 42.528C59.779 42.563 59.7987 42.5943 59.8267 42.6166C59.9986 42.514 60.203 42.444 60.2912 42.1875L60.2958 42.1735ZM59.9429 42.9105H60.059C59.9986 43.0317 59.9429 43.1157 59.7942 43.1157C59.8475 43.0559 59.8885 42.9862 59.915 42.9105H59.9429ZM60.1194 42.7659H60.2633C60.2355 42.8545 60.1472 42.8825 60.059 42.9105C60.0868 42.8685 60.1194 42.8358 60.1194 42.7799V42.7659ZM60.3237 42.6166H60.4677C60.4532 42.6597 60.4258 42.6972 60.3892 42.7239C60.3526 42.7507 60.3086 42.7653 60.2633 42.7659C60.2912 42.7192 60.3237 42.6912 60.3237 42.6306V42.6166ZM60.5281 41.9356C60.4777 41.9947 60.4181 42.0451 60.3516 42.0849C60.5002 42.0989 60.5002 42.0989 60.5281 41.9496V41.9356ZM60.7649 41.819C60.6921 41.8518 60.6222 41.8908 60.5559 41.9356C60.7046 41.9496 60.7046 41.9496 60.7649 41.833V41.819ZM61.4988 41.2873C61.4143 41.3092 61.3412 41.3626 61.2944 41.4366C61.0896 41.5053 60.9069 41.6276 60.7649 41.791C60.8791 41.7954 60.9917 41.7634 61.0868 41.6998C61.1818 41.6361 61.2545 41.544 61.2944 41.4366C61.4105 41.4179 61.4709 41.3899 61.4988 41.3013V41.2873ZM60.9972 42.0849H61.1458C61.0854 42.1735 61.0297 42.2341 60.9414 42.2341C60.9693 42.2155 60.9693 42.1595 60.9972 42.0989V42.0849ZM61.6149 41.6185H61.7357C61.6768 41.7344 61.5935 41.8362 61.4917 41.9167C61.3899 41.9972 61.2718 42.0546 61.1458 42.0849C61.1737 42.0569 61.1737 41.9963 61.2062 41.9356C61.252 41.9414 61.2984 41.9298 61.3362 41.903C61.374 41.8763 61.4005 41.8364 61.4105 41.791C61.4988 41.805 61.5592 41.7724 61.6149 41.6558V41.6185ZM62.4091 40.7323C62.4121 40.7111 62.4219 40.6914 62.437 40.6763C62.0904 40.806 61.7742 41.006 61.5081 41.264C61.8493 41.1889 62.1619 41.0174 62.4091 40.7696V40.7323ZM61.7728 41.6558H61.745C61.8007 41.6278 61.8332 41.6278 61.8889 41.5952C61.8581 41.6279 61.8172 41.6492 61.7728 41.6558ZM62.1537 41.3013H62.3023C62.2665 41.3636 62.2151 41.4153 62.1531 41.4513C62.0912 41.4873 62.0209 41.5064 61.9493 41.5065V41.4506C62.0283 41.4179 62.1165 41.3899 62.1444 41.3013H62.1537ZM62.4788 41.0681C62.4184 41.0961 62.3302 41.1241 62.3023 41.2127C62.3813 41.2127 62.437 41.1847 62.4695 41.0681H62.4788ZM62.6228 41.0075C62.5949 41.0355 62.5345 41.0355 62.5067 41.0681C62.5277 41.0662 62.5482 41.0598 62.5666 41.0494C62.585 41.0389 62.601 41.0246 62.6135 41.0075H62.6228ZM63.2405 40.7136H63.273V40.7696C63.2524 40.7571 63.2374 40.737 63.2312 40.7136H63.2405Z" fill="black"/>
<path d="M72.4925 40.9468L71.963 41.4506C71.9006 41.5218 71.8179 41.5723 71.7261 41.5952V41.5392C71.7251 41.5537 71.7189 41.5673 71.7086 41.5776C71.6984 41.5878 71.6848 41.5941 71.6704 41.5952L71.61 41.6838C71.5947 41.6857 71.5804 41.6927 71.5695 41.7037C71.5586 41.7147 71.5516 41.729 71.5496 41.7444C71.5345 41.7456 71.5203 41.7525 71.5099 41.7637C71.4996 41.775 71.4939 41.7897 71.4939 41.805L71.3174 41.8937C70.9041 42.3601 70.4628 42.7472 70.0216 43.1903C69.9868 43.2366 69.9572 43.2867 69.9333 43.3396C69.9189 43.3406 69.9053 43.3469 69.8951 43.3571C69.8849 43.3674 69.8787 43.381 69.8776 43.3955C69.8451 43.4282 69.8172 43.4282 69.8172 43.4562C69.8172 43.4841 69.8451 43.4282 69.8776 43.3955C69.9101 43.3629 69.9055 43.3675 69.9333 43.3396C70.0541 43.3069 70.1098 43.1903 70.1981 43.1297C70.2769 43.0031 70.3896 42.9013 70.5232 42.8358C70.4871 42.938 70.4142 43.0228 70.3188 43.0737C69.8544 43.6054 69.3481 44.1371 68.8465 44.6688C68.5539 45.0187 68.2613 45.3451 67.9176 45.6716C67.4755 46.1902 66.9942 46.6736 66.4778 47.1175C66.3525 47.2321 66.2137 47.3308 66.0644 47.4114C65.9437 47.4768 65.8059 47.5034 65.6696 47.4876C65.5334 47.4717 65.4053 47.4142 65.3027 47.3228L65.1541 47.2341C65.0662 47.1637 64.9963 47.0732 64.9502 46.9702C64.9042 46.8672 64.8833 46.7546 64.8893 46.6418C64.8915 46.4136 64.9212 46.1865 64.9776 45.9655C65.2128 45.0515 65.5076 44.1541 65.86 43.2789C65.9483 42.9571 66.0644 42.6586 66.1852 42.3461C66.2166 42.2802 66.2355 42.209 66.2409 42.1362C66.2734 42.0802 66.2409 42.0476 66.213 42.0196C66.0969 41.9916 66.0969 41.903 66.0969 41.7817V41.4179C66.0969 41.334 66.0087 41.334 65.9483 41.334V41.3619C65.9204 41.3619 65.9204 41.3899 65.8879 41.4179V41.3619C65.8735 41.363 65.8599 41.3693 65.8497 41.3795C65.8395 41.3898 65.8333 41.4034 65.8322 41.4179H65.7997C65.7738 41.4845 65.7342 41.5449 65.6836 41.5952C65.6836 41.6112 65.6772 41.6267 65.6659 41.638C65.6545 41.6494 65.6392 41.6558 65.6232 41.6558L65.5674 41.7444H65.6232C65.5953 41.7444 65.5953 41.7724 65.5674 41.805C64.9007 42.6365 64.0866 43.337 63.1662 43.8713C62.9527 43.9893 62.7247 44.0787 62.4881 44.1371C62.3225 44.1705 62.151 44.1592 61.9911 44.1045C61.8319 44.0397 61.6884 43.9411 61.5706 43.8156C61.4528 43.69 61.3633 43.5403 61.3084 43.3769C61.2806 43.3285 61.2638 43.2746 61.2589 43.2191C61.2541 43.1635 61.2615 43.1075 61.2805 43.055C61.3038 42.8202 61.3634 42.5905 61.457 42.3741C61.5611 42.1607 61.6774 41.9536 61.8053 41.7537C62.1484 41.2778 62.5656 40.8604 63.0408 40.5177C63.533 40.1525 64.1337 39.9651 64.7453 39.986C64.927 39.9957 65.1058 40.0351 65.2748 40.1026C65.4513 40.1632 65.4792 40.1632 65.6278 39.986C65.8322 39.6595 66.0691 39.3657 66.2734 39.0532L66.3942 39.1138V39.0858C66.8586 38.5821 67.272 37.9897 67.7875 37.5187C67.8804 37.3966 67.9898 37.2883 68.1127 37.1968C68.1594 37.1426 68.2254 37.1089 68.2965 37.1028C68.3676 37.0967 68.4383 37.1187 68.4935 37.1642C68.5663 37.2071 68.6348 37.2571 68.6979 37.3134C68.815 37.3754 68.9045 37.4795 68.9485 37.6049C68.9924 37.7303 68.9875 37.8678 68.9348 37.9897C68.8146 38.3975 68.6592 38.7939 68.4703 39.1744C68.4193 39.2461 68.3786 39.3246 68.3495 39.4077L68.4378 39.291C68.4379 39.341 68.4277 39.3905 68.4077 39.4363C68.3877 39.4821 68.3584 39.5231 68.3217 39.5569V39.4403C68.2859 39.5818 68.2361 39.7193 68.173 39.8507L68.1452 39.9674L68.2938 40.056C68.2853 40.1013 68.2644 40.1433 68.2334 40.1772C68.2193 40.2473 68.1991 40.316 68.173 40.3825C68.0384 40.5395 67.957 40.7356 67.9408 40.9422C67.8186 41.0681 67.7446 41.2332 67.7318 41.4086C67.7148 41.4239 67.701 41.4426 67.6914 41.4634C67.6818 41.4843 67.6766 41.5069 67.6761 41.5299V41.5112C67.5904 41.6589 67.5203 41.8152 67.4671 41.9776C67.3999 42.0723 67.3598 42.1836 67.351 42.2994C67.2906 42.3601 67.2906 42.4207 67.2627 42.5093H67.2906C67.2132 42.6008 67.1633 42.7124 67.1466 42.8312C67.1141 42.8638 67.1141 42.9198 67.0862 42.9524C67.011 43.0103 66.9584 43.0928 66.9376 43.1856L66.501 44.3983C66.4296 44.5239 66.3883 44.6644 66.3802 44.8088C66.185 45.1765 66.0561 45.576 65.9994 45.9888C65.9165 46.1432 65.8764 46.3172 65.8833 46.4925H65.8508C65.9994 46.6091 65.9994 46.6091 66.0598 46.5532L66.3245 46.3433C66.789 45.8442 67.2906 45.3125 67.7922 44.8088C68.2938 44.305 68.6747 43.9226 69.1159 43.5121C69.5803 43.0084 70.0866 42.5373 70.5836 42.0662C71.0805 41.5952 71.5125 41.1334 71.9769 40.7369C72.0213 40.7157 72.0608 40.6856 72.0931 40.6483C72.2696 40.4991 72.2974 40.4991 72.4739 40.6483C72.6504 40.7976 72.6086 40.8302 72.4925 40.9468ZM64.3506 41.6278L64.9079 40.9188C64.9945 40.8158 65.0737 40.7067 65.1448 40.5924C65.1726 40.5644 65.1448 40.5037 65.0844 40.4757H64.9404C64.6842 40.479 64.4319 40.5395 64.2019 40.653C63.9311 40.7788 63.6756 40.9353 63.4402 41.1194C63.36 41.1978 63.258 41.2498 63.1476 41.2687C63.2034 41.1521 63.352 41.0914 63.4077 40.9748C63.496 40.9422 63.5563 40.9142 63.5842 40.8256C63.5077 40.8473 63.4376 40.8873 63.3799 40.9422C63.0365 41.152 62.7532 41.4477 62.5578 41.8004C62.5135 41.8244 62.4748 41.8576 62.4444 41.8978C62.414 41.938 62.3924 41.9843 62.3813 42.0336C62.4282 42.0132 62.469 41.9811 62.5 41.9402C62.5309 41.8994 62.5508 41.8512 62.5578 41.8004C62.6484 41.745 62.7286 41.6739 62.7946 41.5905C62.8773 41.488 62.9762 41.3997 63.0872 41.3293C63.0685 41.4401 63.0166 41.5426 62.9386 41.6231C62.6863 41.8365 62.4767 42.0961 62.3209 42.3881C62.1678 42.6619 62.0684 42.9628 62.0283 43.2743C62.0004 43.3909 62.0887 43.4515 62.2048 43.4235C62.403 43.3377 62.5902 43.2281 62.7621 43.097C63.3398 42.6626 63.872 42.1703 64.3506 41.6278ZM62.2373 42.2155C62.2712 42.204 62.3021 42.185 62.3278 42.16C62.3535 42.135 62.3734 42.1045 62.3859 42.0709C62.3209 42.0989 62.293 42.1595 62.2373 42.2155ZM62.3255 41.4785H62.3859V41.4179H62.4463V41.4785L62.502 41.4179C62.5345 41.3899 62.5345 41.3619 62.5624 41.3619H62.502V41.4179H62.4463V41.3619C62.4138 41.3619 62.4138 41.3899 62.3859 41.4179C62.3697 41.4189 62.3544 41.4254 62.3425 41.4365C62.3307 41.4476 62.323 41.4624 62.3209 41.4785H62.3255ZM62.4463 41.334H62.502V41.3013C62.4695 41.3013 62.4695 41.334 62.4416 41.334H62.4463ZM62.502 41.2733H62.5624V41.334C62.5777 41.332 62.592 41.325 62.6029 41.314C62.6139 41.303 62.6208 41.2887 62.6228 41.2733H62.5624V41.2127C62.5612 41.2292 62.5539 41.2446 62.5418 41.2559C62.5297 41.2671 62.5138 41.2734 62.4974 41.2733H62.502ZM62.5903 41.2127H62.6228V41.1567C62.6181 41.1847 62.5856 41.1847 62.5856 41.2127H62.5903ZM62.6507 41.2733L62.711 41.2127C62.8859 41.1039 63.0199 40.9398 63.0919 40.7463C63.1198 40.7463 63.1198 40.7183 63.1523 40.6903C63.1748 40.6891 63.1968 40.6831 63.2169 40.6726C63.2369 40.6622 63.2545 40.6475 63.2684 40.6297C63.2452 40.6269 63.2217 40.6312 63.201 40.642C63.1803 40.6528 63.1633 40.6696 63.1523 40.6903L63.064 40.7463C62.8819 40.8173 62.7339 40.9559 62.6507 41.1334C62.6507 41.1614 62.6785 41.1614 62.711 41.1894H62.6507V41.2733ZM64.1787 42.3927V42.444C64.2066 42.444 64.2066 42.4114 64.2391 42.4114H64.1787C64.1787 42.3834 64.2066 42.3554 64.2391 42.3228V42.3834C64.267 42.3834 64.267 42.3554 64.2948 42.3228C64.3227 42.2901 64.3552 42.2948 64.3552 42.2668H64.2948C64.3273 42.2341 64.3552 42.2341 64.3552 42.2062C64.3552 42.1782 64.3552 42.2341 64.3831 42.2668C64.4109 42.2994 64.4156 42.2341 64.4156 42.2062H64.3552C64.3831 42.1782 64.4156 42.1455 64.4435 42.1455V42.2062C64.4445 42.1904 64.4512 42.1756 64.4623 42.1645C64.4734 42.1534 64.4882 42.1466 64.5038 42.1455C64.6204 42.0732 64.7039 41.9575 64.7361 41.8237H64.6803C64.7082 41.791 64.7361 41.7631 64.7686 41.7631V41.8237C64.7964 41.8237 64.7964 41.791 64.8243 41.7631L64.8847 41.7024H64.8243C64.8243 41.6744 64.8522 41.6465 64.8847 41.6138V41.6744C64.9126 41.6744 64.9126 41.6465 64.9451 41.6138C64.9765 41.595 65.0033 41.5693 65.0234 41.5386C65.0436 41.5079 65.0565 41.473 65.0612 41.4366L65.1216 41.3806H65.0612V41.4366H65.0008C65.0287 41.4086 65.0612 41.3806 65.0612 41.3526C65.0612 41.3246 65.1216 41.32 65.1494 41.292V41.3526L65.2052 41.292H65.1494V41.1754C65.1773 41.1754 65.1773 41.1427 65.2052 41.1147H65.2655V41.2313C65.3259 41.1754 65.3817 41.1147 65.3817 41.0541H65.3259C65.3538 41.0261 65.3538 40.9981 65.3817 40.9981V41.0261C65.4142 41.0261 65.442 40.9981 65.4699 40.9981H65.3817V40.8489C65.2935 40.9139 65.231 41.008 65.2052 41.1147C65.1773 41.1147 65.1494 41.1427 65.1216 41.1754C65.0356 41.2367 64.9643 41.3163 64.9126 41.4086C64.9115 41.4243 64.9048 41.4391 64.8937 41.4502C64.8826 41.4614 64.8678 41.4681 64.8522 41.4692C64.7175 41.61 64.5904 41.758 64.4713 41.9123C64.25 42.1231 64.0436 42.349 63.8536 42.5886C63.9418 42.5886 64.0301 42.5 64.1183 42.472C64.1156 42.4541 64.1199 42.4359 64.1303 42.4211C64.1407 42.4063 64.1564 42.3961 64.1741 42.3927H64.1787ZM64.1508 42.9851C64.1202 42.9837 64.0898 42.9914 64.0634 43.0072C64.037 43.0229 64.0157 43.046 64.0022 43.0737C64.058 43.0737 64.0951 43.0131 64.1462 42.9851H64.1508ZM65.9111 41.1194C65.9188 41.1149 65.9252 41.1084 65.9297 41.1006C65.9341 41.0929 65.9365 41.0841 65.9365 41.0751C65.9365 41.0661 65.9341 41.0573 65.9297 41.0495C65.9252 41.0418 65.9188 41.0353 65.9111 41.0308C65.9111 41.0308 65.8554 41.0308 65.8554 41.0588L65.7346 41.18C65.3667 41.6452 64.9744 42.0905 64.5596 42.514L64.4156 42.6912C64.4156 42.7192 64.3831 42.7192 64.3552 42.7472C64.3256 42.7612 64.2996 42.782 64.2794 42.8079C64.2593 42.8339 64.2454 42.8642 64.2391 42.8965C64.2982 42.874 64.3486 42.8331 64.3831 42.7799L64.4435 42.7192C64.543 42.6669 64.6326 42.5974 64.7082 42.514C65.1227 42.082 65.5149 41.629 65.8833 41.1567C65.9065 41.1241 65.9065 41.1241 65.9065 41.0961L65.9111 41.1194ZM64.2948 42.2715V42.3274H64.2391C64.2623 42.3041 64.2623 42.2761 64.2902 42.2481L64.2948 42.2715ZM64.8243 41.7071V41.7677H64.7686C64.7658 41.7588 64.7649 41.7494 64.7661 41.7402C64.7672 41.7309 64.7703 41.722 64.7751 41.7141C64.78 41.7061 64.7864 41.6993 64.7941 41.6941C64.8018 41.6889 64.8105 41.6853 64.8197 41.6838L64.8243 41.7071ZM64.9451 41.5019V41.6185H64.8847C64.883 41.6026 64.8847 41.5865 64.8894 41.5713C64.8942 41.556 64.9021 41.5419 64.9126 41.5299L64.9451 41.5019ZM64.9729 41.4412H65.0008C65.0008 41.4739 64.9729 41.4739 64.9451 41.5019C64.9172 41.5299 64.9404 41.4506 64.9683 41.4179L64.9729 41.4412ZM65.4885 40.7696H65.5489C65.55 40.7543 65.5569 40.7401 65.5681 40.7297C65.5793 40.7193 65.594 40.7136 65.6092 40.7136C65.4885 40.653 65.4885 40.653 65.4885 40.7696ZM65.665 41.7024H65.7254C65.7098 41.7203 65.6884 41.7319 65.665 41.7351V41.7024ZM66.5196 40.3032C66.6739 40.1289 66.8108 39.9399 66.9283 39.7388H66.8819L66.7936 39.8274C66.8261 39.7994 66.8261 39.7994 66.854 39.7994C66.8201 39.855 66.7673 39.8964 66.7054 39.916L66.6496 40.0047C66.6485 40.0164 66.6451 40.0279 66.6395 40.0383C66.6339 40.0487 66.6263 40.0579 66.6171 40.0653V40.0373L66.5289 40.1259C66.501 40.1819 66.501 40.2425 66.4731 40.2705L66.3524 40.3918C66.3524 40.3955 66.3517 40.3991 66.3503 40.4025C66.3489 40.4059 66.3468 40.409 66.3442 40.4116C66.3416 40.4142 66.3386 40.4162 66.3352 40.4176C66.3318 40.4191 66.3282 40.4198 66.3245 40.4198C66.2641 40.4804 66.2363 40.569 66.1759 40.625V40.6856C66.1798 40.6897 66.1845 40.693 66.1897 40.6952C66.1948 40.6974 66.2004 40.6986 66.2061 40.6986C66.2117 40.6986 66.2173 40.6974 66.2225 40.6952C66.2277 40.693 66.2324 40.6897 66.2363 40.6856C66.351 40.5671 66.4396 40.4257 66.4964 40.2705L66.5196 40.3032ZM66.2548 44.5802C66.3234 44.497 66.364 44.3942 66.3709 44.2864C66.2999 44.3578 66.2515 44.4486 66.2316 44.5476L66.2548 44.5802ZM67.0769 39.7715L66.4035 40.7043C66.362 40.7809 66.3377 40.8656 66.3321 40.9526C66.3264 41.0395 66.3397 41.1267 66.3709 41.208C66.4035 41.3246 66.4035 41.4412 66.4313 41.5625C66.4313 41.5905 66.4035 41.6511 66.4917 41.6511C66.58 41.6511 66.5474 41.5905 66.5474 41.5625C66.6125 41.3619 67.2302 39.8554 67.0537 39.7388L67.0769 39.7715ZM66.6728 43.3769C66.7007 43.3769 66.7007 43.3769 66.6728 43.3769V43.3769ZM66.8772 39.7155C66.8772 39.7481 66.8493 39.7481 66.8493 39.7761C66.8493 39.8041 66.8493 39.7388 66.8819 39.7062L66.8772 39.7155ZM66.9655 38.834C67.0258 38.8013 67.1141 38.7733 67.1419 38.6847L67.2023 38.5961C67.2395 38.5946 67.2756 38.583 67.3067 38.5625C67.3378 38.5419 67.3628 38.5132 67.3788 38.4795C67.3788 38.4468 67.4067 38.4188 67.4346 38.3909V38.4468C67.4671 38.4188 67.4671 38.3909 67.4949 38.3582C67.5368 38.3459 67.5749 38.3232 67.6057 38.2922C67.6366 38.2613 67.6592 38.223 67.6714 38.181L67.7318 38.0924C67.7084 38.0955 67.687 38.1071 67.6714 38.125C67.661 38.1129 67.6531 38.0988 67.6483 38.0836C67.6435 38.0684 67.6419 38.0523 67.6436 38.0364H67.6993V37.9664C67.6714 37.9664 67.6714 37.9944 67.6436 38.0271C67.5258 38.08 67.4315 38.1746 67.3788 38.2929C67.2784 38.3521 67.2038 38.447 67.1698 38.5588C67.1419 38.5868 67.1141 38.6147 67.1141 38.6474L66.9655 38.834ZM67.3184 41.8144C67.2422 41.8962 67.1907 41.9981 67.1698 42.1082C67.2495 42.0251 67.3015 41.9192 67.3184 41.805V41.8144ZM67.4346 38.3302C67.4671 38.3582 67.4671 38.3582 67.4949 38.3582C67.5228 38.3582 67.4671 38.3582 67.4346 38.3909V38.3302ZM67.4346 42.0196V41.9776H67.4671C67.4626 41.9768 67.458 41.977 67.4537 41.9784C67.4494 41.9797 67.4454 41.9821 67.4422 41.9853C67.439 41.9886 67.4367 41.9925 67.4353 41.9968C67.434 42.0012 67.4337 42.0058 67.4346 42.0103V42.0196ZM67.6436 41.0448C67.6211 41.068 67.604 41.0959 67.5936 41.1266C67.5831 41.1572 67.5796 41.1898 67.5832 41.222C67.611 41.1567 67.6111 41.0961 67.6436 41.0448ZM67.6993 37.9478C67.7408 37.9347 67.7785 37.9118 67.8092 37.8809C67.84 37.85 67.8628 37.8122 67.8758 37.7705C67.8992 37.7673 67.9206 37.7557 67.9362 37.7379L67.964 37.7099C67.9362 37.6819 67.9362 37.6819 67.9083 37.7099C67.8804 37.7379 67.8758 37.7379 67.8758 37.7705C67.8099 37.8185 67.7505 37.8749 67.6993 37.9384V37.9478ZM67.8758 40.4851C67.8758 40.5131 67.8479 40.5131 67.8201 40.5457C67.7922 40.5784 67.8201 40.6017 67.8479 40.6017L67.8758 40.5737V40.4851ZM68.6421 44.2164C68.3872 44.4423 68.1511 44.6888 67.9362 44.9534C67.8758 44.986 67.8758 45.042 67.8479 45.1026C68.1168 44.8621 68.3625 44.5966 68.5818 44.3097C68.5991 44.2953 68.6134 44.2776 68.6238 44.2576C68.6342 44.2375 68.6404 44.2156 68.6421 44.1931V44.2164ZM68.526 44.8694C68.4935 44.8694 68.4935 44.8974 68.4657 44.9254C68.2356 45.0872 68.045 45.2993 67.9083 45.5457C68.1305 45.3752 68.3195 45.1649 68.4657 44.9254C68.4935 44.8741 68.526 44.8741 68.526 44.8461V44.8694ZM68.0848 40.028C68.0449 40.0654 68.0134 40.111 67.9926 40.1617C67.9717 40.2124 67.962 40.267 67.964 40.3218C68.0387 40.2327 68.0812 40.121 68.0848 40.0047V40.028ZM68.2892 40.2052C68.267 40.1689 68.2572 40.1263 68.2613 40.084H68.2752L68.2892 40.2052ZM68.5818 44.7808L68.526 44.8368C68.5412 44.8356 68.5554 44.8287 68.5658 44.8174C68.5761 44.8062 68.5818 44.7914 68.5818 44.7761V44.7808ZM68.6421 44.7201C68.6096 44.7481 68.6096 44.7481 68.6096 44.7808C68.6096 44.8134 68.6421 44.7248 68.6421 44.6968V44.7201ZM69.7568 43.5681C69.7011 43.5681 69.7011 43.5961 69.6686 43.6287L69.6129 43.6847C69.5804 43.6847 69.5803 43.7174 69.5525 43.7453C69.5246 43.7733 69.4921 43.7733 69.4921 43.806L69.4364 43.8619C69.1614 44.0875 68.915 44.3459 68.7025 44.6315C68.6904 44.6426 68.6812 44.6564 68.6755 44.6719C68.6699 44.6873 68.668 44.7038 68.67 44.7201C68.9671 44.4871 69.2257 44.2085 69.4364 43.8946C69.4642 43.8619 69.4921 43.8619 69.4921 43.834L69.5525 43.7733L69.6407 43.6847L69.7011 43.6287C69.729 43.6054 69.729 43.5728 69.7568 43.5448V43.5681ZM68.9951 43.8619C69.023 43.8619 69.023 43.8619 69.023 43.834L68.9951 43.8619ZM69.1112 43.7453C69.3106 43.6616 69.4691 43.5024 69.5525 43.3022C69.3791 43.4113 69.229 43.554 69.1112 43.722V43.7453ZM70.2585 42.5933C70.0513 42.757 69.8642 42.9449 69.7011 43.153C69.9512 43.033 70.1492 42.8258 70.2585 42.57V42.5933ZM70.5232 42.8591C70.5232 42.8312 70.5511 42.8032 70.5789 42.7705V42.8032C70.5511 42.7799 70.5511 42.8078 70.5232 42.8358V42.8591ZM70.5789 42.7705C70.7509 42.569 70.9389 42.3819 71.1409 42.2108C71.0256 42.4463 70.834 42.6355 70.5975 42.7472L70.5789 42.7705ZM71.2849 41.6511C71.0402 41.7771 70.8285 41.9592 70.6672 42.1828C70.7807 42.1527 70.8837 42.0913 70.9644 42.0056L71.2849 41.6511ZM71.2292 42.1502C71.1967 42.1828 71.1688 42.1828 71.1688 42.2108C71.1659 42.2012 71.1653 42.1911 71.167 42.1812C71.1686 42.1714 71.1725 42.162 71.1784 42.1539C71.1842 42.1458 71.1918 42.1391 71.2006 42.1344C71.2094 42.1298 71.2192 42.1272 71.2292 42.1269V42.1502ZM71.4939 41.8284H71.5496C71.4795 41.9603 71.3664 42.064 71.2292 42.1222L71.4939 41.8284ZM71.5496 41.8284V41.7444H71.61C71.5944 41.7455 71.5796 41.7522 71.5685 41.7634C71.5574 41.7745 71.5507 41.7893 71.5496 41.805V41.8284ZM71.61 41.7397V41.7071H71.6704C71.6379 41.6838 71.6379 41.7164 71.61 41.7164V41.7397ZM71.6704 41.6185H71.7261C71.6983 41.6511 71.6983 41.6791 71.6704 41.6791V41.6185ZM72.1349 40.7929C72.0132 40.8768 71.9038 40.9772 71.8097 41.0914C72.0234 40.9795 72.0234 40.9795 72.1395 40.7696L72.1349 40.7929Z" fill="black"/>
<path d="M83.3979 41.1847H83.5419C83.5078 41.2463 83.4581 41.2978 83.3979 41.334C83.2772 41.4179 83.161 41.4785 83.0124 41.5672C82.4272 41.833 81.8699 42.1875 81.3079 42.5L80.927 42.7052C80.3697 43.0597 79.7798 43.3815 79.2225 43.736C78.8695 43.9459 78.549 44.1231 78.196 44.3004C78.0025 44.3695 77.8056 44.4287 77.6061 44.4776C77.3988 44.545 77.1755 44.5437 76.969 44.474C76.7624 44.4043 76.5836 44.2699 76.4589 44.0905C76.3711 43.9912 76.2933 43.8834 76.2267 43.7687C76.1449 43.6668 76.0887 43.5467 76.0629 43.4184C76.037 43.2901 76.0422 43.1575 76.0781 43.0317C76.1612 42.6719 76.2891 42.324 76.4589 41.9963L76.6354 41.5299C76.6679 41.4412 76.6076 41.3806 76.4914 41.4086C76.3803 41.4412 76.2717 41.4817 76.1663 41.5299C75.7019 41.7351 75.2839 41.9963 74.8426 42.2062C74.6281 42.3685 74.4031 42.5166 74.1692 42.6493C74.1134 42.6814 74.0632 42.7223 74.0205 42.7705C73.859 42.8677 73.7039 42.9752 73.5561 43.0924H73.5839C73.1195 43.4748 72.655 43.8619 72.1441 44.2164C71.9767 44.3681 71.7763 44.4783 71.5589 44.5383C71.3948 44.6048 71.2142 44.6186 71.042 44.5776C70.8698 44.5367 70.7145 44.4431 70.5975 44.3097L70.4489 44.1325C70.3531 44.0511 70.2848 43.942 70.2532 43.8201C70.2216 43.6982 70.2283 43.5694 70.2724 43.4515C70.3712 43.0699 70.5195 42.7029 70.7136 42.3601C70.8901 42.0662 71.0387 41.8004 71.1781 41.5019C71.5746 40.8394 72.0072 40.1995 72.4739 39.5849C72.8269 39.1185 73.2356 38.6521 73.649 38.1856C73.8255 38.0084 74.0298 37.8312 74.2388 37.6586C74.3271 37.5979 74.3828 37.57 74.4711 37.6866C74.5593 37.8032 74.6197 37.6866 74.6197 37.8032C74.637 37.9019 74.6273 38.0034 74.5918 38.097L74.4153 38.3349C74.002 38.9552 73.5886 39.5149 73.1799 40.1353C73.0975 40.24 73.0374 40.3607 73.0034 40.4897C72.7146 40.8435 72.4683 41.2302 72.2695 41.6418C72.2706 41.6831 72.2593 41.7237 72.237 41.7584C72.2092 41.819 72.1813 41.819 72.1488 41.875V41.9636C72.1209 42.0243 72.0605 42.0849 72.0327 42.1409C72.0019 42.165 71.9795 42.1983 71.9687 42.236C71.9578 42.2737 71.9591 42.3138 71.9723 42.3508C71.9231 42.4022 71.8838 42.4623 71.8562 42.528C71.8251 42.5389 71.7965 42.556 71.7721 42.5782C71.7477 42.6004 71.7279 42.6273 71.7141 42.6573C71.7002 42.6874 71.6925 42.7199 71.6914 42.7529C71.6902 42.786 71.6957 42.8189 71.7075 42.8498C71.7131 42.8638 71.7214 42.8765 71.732 42.8871C71.7426 42.8978 71.7552 42.9062 71.769 42.9118C71.7829 42.9175 71.7978 42.9203 71.8127 42.92C71.8277 42.9198 71.8425 42.9165 71.8562 42.9105C71.9723 42.8498 72.0605 42.7332 72.2092 42.6446C72.8531 42.0714 73.5588 41.5724 74.3131 41.1567C74.7597 40.8944 75.2255 40.6668 75.7065 40.4757C75.8816 40.3809 76.0693 40.3118 76.2639 40.2705C76.4289 40.2124 76.6066 40.2008 76.7778 40.2369C76.9489 40.2731 77.1069 40.3557 77.2346 40.4757C77.4253 40.6518 77.5938 40.8507 77.7362 41.0681C77.8276 41.25 77.8475 41.4598 77.7919 41.6558C77.7533 41.9788 77.664 42.2937 77.5272 42.5886C77.4389 42.7985 77.3832 43.055 77.2624 43.2696C77.2608 43.2859 77.2628 43.3023 77.2685 43.3177C77.2741 43.3331 77.2832 43.3469 77.295 43.3582H77.4111C77.4993 43.3256 77.5876 43.2696 77.6758 43.2369C78.117 43.0037 78.5583 42.7985 78.9391 42.5886C79.7055 42.2062 80.4672 41.8517 81.1732 41.4366C81.4658 41.292 81.7909 41.1754 82.0556 41.0541C82.1996 40.9655 82.3482 40.9095 82.4644 40.8489C82.5666 40.8058 82.6659 40.7559 82.7616 40.6996C82.8855 40.649 83.0229 40.6422 83.1512 40.6804C83.2795 40.7185 83.3911 40.7993 83.4676 40.9095C83.5233 40.9375 83.5233 40.9981 83.4955 41.0541C83.4676 41.1101 83.3979 41.0961 83.3979 41.1847ZM71.8747 43.4282C72.0066 43.3732 72.1195 43.2808 72.1999 43.1623H72.2881C72.316 43.1623 72.316 43.1903 72.316 43.2183C72.3171 43.203 72.324 43.1888 72.3352 43.1784C72.3464 43.168 72.3611 43.1623 72.3764 43.1623L72.4321 43.1017H72.3764L72.4321 43.0131C72.4296 43.0294 72.4313 43.0461 72.437 43.0616C72.4427 43.0771 72.4522 43.0909 72.4646 43.1017C72.4646 43.0737 72.5203 43.0457 72.5529 43.0131H72.4553C72.5105 42.9524 72.5839 42.9115 72.6643 42.8965V42.9571C72.6922 42.9571 72.6922 42.9244 72.6922 42.8965H72.6643C72.6807 42.8804 72.6907 42.8588 72.6922 42.8358C72.7144 42.8077 72.7455 42.7879 72.7804 42.7799V42.8358H72.7201V42.9105C72.7201 42.8825 72.7526 42.8825 72.7804 42.8498C72.8496 42.8297 72.9111 42.789 72.9569 42.7332H72.8408C72.8553 42.6901 72.8827 42.6526 72.9193 42.6259C72.9559 42.5991 72.9999 42.5845 73.0452 42.584V42.6446C73.0616 42.6285 73.0715 42.6069 73.073 42.584H73.0452C73.073 42.584 73.073 42.556 73.1009 42.528C73.1355 42.4652 73.187 42.4135 73.2495 42.3787C73.2774 42.3508 73.3099 42.3508 73.3703 42.3181C73.4307 42.2855 73.4539 42.2015 73.5421 42.2015V42.2621L73.6025 42.2015H73.5421C73.5582 42.2015 73.5735 42.1951 73.5848 42.1837C73.5962 42.1724 73.6025 42.1569 73.6025 42.1409L73.6908 42.0243H73.8069C73.8394 41.9963 73.8394 41.9356 73.8673 41.875C73.9047 41.8746 73.9413 41.8634 73.9726 41.8428C74.0039 41.8221 74.0286 41.7928 74.0438 41.7584C74.0811 41.7575 74.1174 41.7461 74.1486 41.7255C74.1798 41.7048 74.2046 41.6759 74.2203 41.6418C74.1832 41.6437 74.1473 41.6556 74.1162 41.6761C74.0852 41.6965 74.0602 41.725 74.0438 41.7584C73.9649 41.774 73.8932 41.815 73.8394 41.875C73.7584 41.8913 73.6849 41.9339 73.6304 41.9963C73.4753 42.0769 73.3366 42.1861 73.2217 42.3181C72.8429 42.5459 72.4961 42.8236 72.1906 43.1437C72.0688 43.201 71.9669 43.2936 71.898 43.4095L71.8097 43.4981C71.8237 43.4687 71.8464 43.4442 71.8747 43.4282ZM74.7265 42.0289C74.6616 42.0274 74.5975 42.0429 74.5404 42.074C74.4834 42.1051 74.4354 42.1507 74.4014 42.2062C74.3248 42.2098 74.2522 42.2413 74.197 42.2948C73.5383 42.7336 72.9098 43.2167 72.316 43.7407C72.2881 43.7687 72.2881 43.8293 72.2556 43.8899C72.2217 43.8917 72.1885 43.9005 72.1581 43.9157C72.1277 43.931 72.1008 43.9524 72.0791 43.9786C72.1472 43.9734 72.2106 43.9416 72.2556 43.8899C72.4166 43.8146 72.5581 43.7028 72.669 43.5634C73.2263 43.1483 73.7558 42.6772 74.3457 42.2948L74.4014 42.2062C74.4663 42.1983 74.5287 42.1768 74.5848 42.143C74.6408 42.1093 74.6891 42.064 74.7265 42.0103V42.0289ZM72.2881 43.181C72.316 43.1483 72.3438 43.1483 72.3764 43.1203V43.181H72.2881ZM73.6072 42.1455V42.2062L73.6954 42.1455H73.6072ZM79.5151 43.2976C79.4435 43.3121 79.3802 43.3539 79.3386 43.4142C79.4066 43.3828 79.4669 43.3366 79.5151 43.2789V43.2976ZM79.8123 43.1203C79.7469 43.148 79.6871 43.1876 79.6358 43.2369C79.6033 43.2696 79.5476 43.2696 79.5476 43.2976L79.6358 43.2369C79.6732 43.2286 79.7084 43.2121 79.7389 43.1888C79.7693 43.1654 79.7944 43.1357 79.8123 43.1017V43.1203ZM79.9284 43.0317C79.9284 43.0644 79.868 43.0924 79.8402 43.0924C79.8866 43.0737 79.9284 43.0737 79.9284 43.0131V43.0317ZM80.2814 42.8545C80.1932 42.8871 80.1328 42.9151 80.1049 42.9758C80.1607 42.9105 80.2535 42.9105 80.2814 42.8358V42.8545ZM80.3975 42.7985C80.3657 42.7967 80.3343 42.8066 80.3093 42.8265C80.3432 42.8216 80.3743 42.8051 80.3975 42.7799V42.7985ZM80.5136 42.1455L80.43 42.2062C80.4579 42.1875 80.4858 42.1875 80.5136 42.1269V42.1455ZM80.5136 42.7379C80.4858 42.7379 80.4579 42.7659 80.43 42.7985L80.5136 42.7379ZM80.8388 42.5327C80.7226 42.5886 80.6019 42.5886 80.5461 42.7379C80.6555 42.6803 80.7544 42.6046 80.8388 42.514V42.5327ZM80.9874 42.472C80.927 42.472 80.8666 42.5 80.8666 42.5327C80.8666 42.5653 80.927 42.4813 80.9874 42.444V42.472ZM81.0756 42.4114C81.0433 42.4113 81.0119 42.4229 80.9874 42.444C81.0048 42.4419 81.0216 42.4362 81.0367 42.4274C81.0519 42.4186 81.0651 42.4068 81.0756 42.3927V42.4114ZM81.4286 42.2062C81.3961 42.2341 81.3404 42.2341 81.3079 42.2668C81.3326 42.2635 81.3563 42.2546 81.3772 42.2409C81.3981 42.2272 81.4157 42.2089 81.4286 42.1875V42.2062ZM81.5447 42.1782C81.5169 42.1782 81.4565 42.1782 81.4565 42.2062C81.4833 42.1861 81.5131 42.1704 81.5447 42.1595V42.1782ZM82.1299 41.8237C82.1078 41.8246 82.0861 41.83 82.0661 41.8396C82.0462 41.8493 82.0284 41.8629 82.0138 41.8797C81.9486 41.8898 81.8863 41.9137 81.8311 41.9499C81.7758 41.9861 81.7289 42.0337 81.6934 42.0896C81.8095 42.0289 81.9256 42.0289 82.0138 41.8797C82.0492 41.8499 82.0882 41.8249 82.1299 41.805V41.8237ZM82.6919 41.4972C82.6594 41.4972 82.6594 41.5252 82.6316 41.5252L82.6037 41.5578C82.6037 41.5858 82.6316 41.5858 82.6594 41.5578C82.6873 41.5299 82.6734 41.5112 82.6734 41.4785L82.6919 41.4972Z" fill="black"/>
<path d="M90.1837 40.2099C90.1784 40.2917 90.1596 40.3721 90.1279 40.4478C90.1279 40.4757 90.0954 40.5037 90.0675 40.5364C89.6031 40.9188 89.0968 41.3013 88.5999 41.6838C87.9217 42.2155 87.2065 42.7472 86.5702 43.2789C85.423 44.1371 84.3083 45.0187 83.1611 45.8769C82.8172 46.1406 82.4539 46.3776 82.0742 46.5858C81.911 46.6848 81.7318 46.7543 81.5448 46.791C81.4468 46.8148 81.3445 46.8136 81.2472 46.7876C81.1498 46.7615 81.0605 46.7114 80.9874 46.6418L80.8388 46.5578C80.7089 46.4753 80.6082 46.354 80.5507 46.2109C80.4932 46.0678 80.4818 45.9102 80.5183 45.7603C80.551 45.3024 80.6593 44.8532 80.8388 44.431C80.9583 44.261 81.0479 44.0717 81.1035 43.8713C81.3866 43.2395 81.7108 42.6271 82.0742 42.0382C82.4272 41.3899 82.7802 40.7696 83.1611 40.1726C83.5419 39.5756 83.9832 38.9646 84.4523 38.3722C84.5142 38.2931 84.596 38.232 84.6891 38.195C85.0142 38.3722 85.07 38.4935 84.926 38.8479C84.7932 39.2163 84.6253 39.5709 84.4244 39.9067C84.2804 40.1446 84.1596 40.3731 84.0435 40.6157C84.0125 40.6497 83.9916 40.6917 83.9832 40.7369H84.0668C84.0064 40.7929 83.9785 40.8256 83.9785 40.8815C83.875 40.9662 83.7856 41.067 83.7138 41.18C83.6086 41.426 83.4811 41.6618 83.3329 41.8843C83.3044 41.9779 83.2638 42.0672 83.2122 42.1502C83.1843 42.2108 83.1564 42.2388 83.1564 42.2715C83.1564 42.3041 83.1843 42.2994 83.2122 42.2994H83.1378C82.9764 42.4494 82.8633 42.6443 82.8127 42.8591C82.6948 42.9874 82.6228 43.1516 82.6084 43.3256C82.4916 43.4495 82.4099 43.6025 82.3715 43.7687C82.2219 43.9464 82.1211 44.1602 82.0789 44.389C82.0789 44.417 82.0789 44.4496 82.0185 44.4776C81.797 44.8348 81.6295 45.2231 81.5215 45.6297C81.4944 45.7457 81.4835 45.865 81.489 45.9841C81.489 46.0401 81.5773 46.0728 81.6376 46.0728C81.6897 46.0478 81.7395 46.0181 81.7863 45.9841L82.3436 45.6297C82.6084 45.4524 82.8452 45.2425 83.1053 45.0653C83.7231 44.5989 84.3733 44.1325 84.9864 43.666C85.4508 43.3116 85.9153 43.0177 86.3797 42.6632C87.0532 42.1595 87.7731 41.6604 88.4373 41.1287L89.6728 40.2425C89.7279 40.1842 89.8011 40.1464 89.8805 40.1354C89.9598 40.1244 90.0405 40.1408 90.1093 40.1819L90.1837 40.2099ZM81.9256 44.1371C81.986 44.0765 81.986 44.0159 82.0139 43.9599C82.0417 43.9039 82.0464 43.8386 82.0742 43.8106V43.7827C82.0464 43.8386 82.0464 43.8993 82.0139 43.9599C81.9967 44.0146 81.9664 44.0643 81.9256 44.1045V44.1371ZM82.2089 43.5168C82.2368 43.5168 82.2368 43.5168 82.2647 43.4841C82.2573 43.4841 82.2502 43.4812 82.245 43.4759C82.2397 43.4707 82.2368 43.4636 82.2368 43.4562C82.2507 43.4841 82.2089 43.4841 82.2089 43.5168ZM82.5619 42.9244C82.5619 42.8685 82.5898 42.8358 82.5898 42.7799C82.583 42.8231 82.5783 42.8667 82.5758 42.9104L82.5619 42.9244ZM85.9246 36.6978C85.8363 36.5485 85.7202 36.4319 85.776 36.2313C85.8077 36.0976 85.8577 35.9689 85.9246 35.8489C86.2351 35.3515 86.5895 34.8832 86.9835 34.4496C87.0766 34.3375 87.1844 34.2387 87.304 34.1558C87.353 34.1131 87.4157 34.0896 87.4805 34.0896C87.5454 34.0896 87.608 34.1131 87.657 34.1558C87.7383 34.2328 87.827 34.3016 87.9217 34.361C87.8512 34.4643 87.7736 34.5624 87.6895 34.6549C87.6294 34.6783 87.5749 34.714 87.5293 34.7598C87.4837 34.8056 87.4481 34.8604 87.4248 34.9207C87.3799 34.9334 87.3406 34.9611 87.3136 34.9993C87.2866 35.0375 87.2733 35.0838 87.2762 35.1306C87.3102 35.0429 87.3723 34.9691 87.4526 34.9207C87.5237 34.8253 87.603 34.7363 87.6895 34.6549C87.8056 34.6269 87.866 34.5989 88.01 34.5662C87.9668 34.6122 87.9279 34.6622 87.8939 34.7155C87.6209 34.876 87.3888 35.0979 87.2158 35.3638C87.004 35.6583 86.8175 35.9704 86.6584 36.2966C86.5488 36.4771 86.4212 36.6459 86.2776 36.8004C86.1289 36.8144 86.0128 36.8144 85.9246 36.6978ZM87.318 34.4823C87.3737 34.5149 87.4619 34.4543 87.4619 34.3657H87.4341C87.3737 34.3377 87.3458 34.3377 87.318 34.3937C87.3117 34.4076 87.3084 34.4227 87.3084 34.438C87.3084 34.4533 87.3117 34.4684 87.318 34.4823Z" fill="black"/>
</g>
<defs>
<clipPath id="clip0">
<rect width="118" height="55" fill="white"/>
</clipPath>
</defs>
</svg>
